<svg width="33" height="18" viewBox="0 0 33 18" fill="none" xmlns="http://www.w3.org/2000/svg">
<path fill-rule="evenodd" clip-rule="evenodd" d="M0.482601 0.599747C-0.16087 1.26246 -0.16087 2.33426 0.482601 2.99534L14.1175 17.0073C14.4181 17.3209 14.7798 17.5707 15.1807 17.7413C15.5816 17.912 16.0134 18 16.4497 18C16.886 18 17.3177 17.912 17.7186 17.7413C18.1195 17.5707 18.4813 17.3209 18.7818 17.0073L32.5174 2.89389C32.8244 2.57358 32.9969 2.14941 33 1.70751C33.003 1.26561 32.8364 0.839123 32.5339 0.514659C32.3845 0.353925 32.2034 0.225316 32.0019 0.136798C31.8004 0.048279 31.5827 0.0017349 31.3623 4.75134e-05C31.1418 -0.00163987 30.9234 0.0415654 30.7206 0.126988C30.5177 0.21241 30.3346 0.338231 30.1828 0.496659L17.6153 13.4139C17.465 13.5708 17.2841 13.6958 17.0836 13.7812C16.8831 13.8666 16.6671 13.9107 16.4488 13.9107C16.2306 13.9107 16.0146 13.8666 15.8141 13.7812C15.6136 13.6958 15.4326 13.5708 15.2824 13.4139L2.81393 0.599747C2.66379 0.442839 2.48301 0.317886 2.28261 0.232498C2.08221 0.14711 1.86638 0.103075 1.64827 0.103075C1.43015 0.103075 1.21432 0.14711 1.01392 0.232498C0.813519 0.317886 0.632744 0.442839 0.482601 0.599747Z" fill="#18191E"/>
</svg>
