<svg width="12" height="22" viewBox="0 0 12 22" fill="none" xmlns="http://www.w3.org/2000/svg">
<path fill-rule="evenodd" clip-rule="evenodd" d="M11.6002 0.321733C11.1584 -0.107245 10.4438 -0.107245 10.0031 0.321733L0.661817 9.41167C0.452716 9.61204 0.286216 9.8532 0.172443 10.1205C0.0586692 10.3878 -9.17337e-07 10.6756 -9.42765e-07 10.9664C-9.68193e-07 11.2573 0.0586691 11.5451 0.172442 11.8124C0.286216 12.0797 0.452716 12.3208 0.661816 12.5212L10.0707 21.6783C10.2843 21.8829 10.5671 21.9979 10.8617 22C11.1563 22.002 11.4406 21.8909 11.6569 21.6893C11.7641 21.5897 11.8498 21.469 11.9088 21.3346C11.9678 21.2002 11.9988 21.0551 12 20.9082C12.0011 20.7612 11.9723 20.6156 11.9153 20.4804C11.8584 20.3451 11.7745 20.2231 11.6689 20.1218L3.05741 11.7436C2.95277 11.6434 2.86945 11.5228 2.81251 11.3891C2.75558 11.2554 2.72621 11.1114 2.72621 10.9659C2.72621 10.8204 2.75558 10.6764 2.81251 10.5427C2.86945 10.409 2.95278 10.2884 3.05741 10.1882L11.6002 1.87596C11.7048 1.77586 11.7881 1.65534 11.845 1.52174C11.9019 1.38814 11.9313 1.24426 11.9313 1.09885C11.9313 0.953438 11.9019 0.809549 11.845 0.675947C11.7881 0.542347 11.7048 0.421829 11.6002 0.321733Z" fill="white"/>
</svg>
