<?xml version="1.0" encoding="UTF-8"?>
<svg id="katman_1" data-name="katman 1" xmlns="http://www.w3.org/2000/svg" viewBox="0 0 1331.25 852.59">
  <defs>
    <style>
      .cls-1, .cls-2, .cls-3, .cls-4, .cls-5, .cls-6 {
        stroke-width: 0px;
      }

      .cls-1, .cls-7 {
        fill: #efb45c;
      }

      .cls-8 {
        stroke-linejoin: round;
      }

      .cls-8, .cls-9, .cls-10, .cls-11, .cls-7, .cls-12, .cls-13 {
        stroke: #18191e;
      }

      .cls-8, .cls-10, .cls-12, .cls-13 {
        stroke-width: 7.26px;
      }

      .cls-8, .cls-12, .cls-6 {
        fill: #fff;
      }

      .cls-9 {
        stroke-width: 4.84px;
      }

      .cls-9, .cls-10, .cls-11, .cls-7, .cls-12, .cls-13 {
        stroke-miterlimit: 10;
      }

      .cls-9, .cls-11 {
        fill: none;
      }

      .cls-10 {
        fill: #f37d6b;
      }

      .cls-2 {
        opacity: .7;
      }

      .cls-2, .cls-5 {
        fill: #d97e41;
      }

      .cls-3 {
        fill: #bc643c;
      }

      .cls-4 {
        fill: #18191e;
      }

      .cls-11 {
        stroke-width: 8.93px;
      }

      .cls-7 {
        stroke-width: 8.47px;
      }

      .cls-13 {
        fill: #ff9a8e;
      }
    </style>
  </defs>
  <g>
    <rect class="cls-6" x="5.86" y="522.53" width="1319.53" height="324.41" rx="62.08" ry="62.08"/>
    <g>
      <path class="cls-4" d="M64.2,793.96c-7.2-7.84-10.8-16.95-10.8-27.33v-158.88c0-12.5,3.5-22.51,10.49-30.03,6.99-7.52,15.99-11.28,27.01-11.28h69.91c17.48,0,33.05,3.73,46.71,11.2,13.66,7.47,24.25,17.64,31.78,30.5,7.52,12.87,11.28,27.2,11.28,42.98-.53,22.56-7.79,41.26-21.77,56.08-13.98,14.83-32.84,23.67-56.56,26.53-4.87.64-9.64.95-14.3.95h-29.39v32.57c0,11.23-3.76,20.44-11.28,27.64-7.1,7.1-15.78,10.65-26.06,10.65s-19.6-3.87-27.01-11.6ZM128.54,668.93h30.03c4.98,0,9.21-1.75,12.71-5.24,3.71-3.71,5.56-7.89,5.56-12.55s-1.75-8.9-5.24-12.39c-3.81-3.49-8.16-5.24-13.03-5.24h-30.03v35.43Z"/>
      <path class="cls-4" d="M272.17,794.92c-7.42-7.41-11.12-16.52-11.12-27.33v-165.71c0-10.59,3.68-19.51,11.04-26.77,7.36-7.25,16.28-10.88,26.77-10.88,6.67,0,12.89,1.67,18.67,5,5.77,3.34,10.33,7.92,13.66,13.74,3.34,5.83,5,12.23,5,19.22v166.03c0,4.98-.93,9.83-2.78,14.54-1.85,4.71-4.58,8.87-8.18,12.47-7.41,7.1-16.21,10.64-26.37,10.64-10.8,0-19.7-3.65-26.69-10.96Z"/>
      <path class="cls-4" d="M497.93,738.2c11.23-2.12,19.17-6.41,23.83-12.87h-19.54c-9.32,0-17.19-3.28-23.59-9.85-6.41-6.57-9.61-14.46-9.61-23.67.21-6.14,1.75-11.68,4.61-16.6,2.86-4.92,6.8-8.87,11.84-11.84,5.03-2.96,10.51-4.45,16.44-4.45h63.07c23.2,0,34.79,12.76,34.79,38.29,0,7.41-.74,15.04-2.22,22.88-1.48,9.85-5.14,20.02-10.96,30.5-6.46,11.55-14.7,21.48-24.71,29.79-10.01,8.32-21.5,14.64-34.48,18.99-12.98,4.34-27.25,6.51-42.82,6.51-8.9,0-18.75-.85-29.55-2.54-14.83-2.54-28.25-6.96-40.28-13.27-12.02-6.3-22.54-14.43-31.54-24.39-9-9.95-16.21-21.29-21.61-34-6.25-15.04-9.37-30.29-9.37-45.76,0-20.34,5.16-39.59,15.49-57.75,10.33-18.16,24.92-33.18,43.77-45.04,20.55-12.81,43.95-19.22,70.22-19.22,3.39,0,8.26.21,14.62.64,11.33.95,22.4,3.13,33.21,6.51,10.38,3.39,20.12,7.84,29.23,13.35,18.53,12.18,27.8,25.21,27.8,39.08,0,8.26-3.81,15.73-11.44,22.4-5.4,4.77-11.92,7.15-19.54,7.15-5.62,0-11.6-1.32-17.95-3.97h-.32l-13.66-7.15c-2.97-1.69-5.24-2.86-6.83-3.49-13.24-6.14-25.58-9.22-37.02-9.22-9.21,0-17.48,1.83-24.78,5.48-7.31,3.65-13.4,9.03-18.27,16.13-4.87,7.1-8.1,15.31-9.69,24.63-.64,2.97-.95,5.88-.95,8.74,0,3.71.32,7.31.95,10.8,1.91,9.43,5.3,17.5,10.17,24.23,4.87,6.73,11.04,11.92,18.51,15.57,7.47,3.65,15.91,5.48,25.34,5.48,5.72,0,11.33-.69,16.84-2.07Z"/>
      <path class="cls-4" d="M618.68,778.55c-2.01-4.66-3.02-9.43-3.02-14.3v-159.67c0-7.09,1.64-13.56,4.93-19.38,3.28-5.82,7.79-10.41,13.5-13.74,5.72-3.34,12.18-5,19.38-5h89.45c5.4,0,10.56,1.46,15.49,4.37,4.92,2.91,8.84,6.86,11.76,11.84,2.91,4.98,4.37,10.54,4.37,16.68s-1.46,11.6-4.37,16.68c-2.91,5.08-6.83,9.11-11.76,12.08-4.93,2.97-10.3,4.45-16.13,4.45h-51.48v19.86h42.42c4.55,0,9.06.93,13.51,2.78,4.45,1.85,8.26,4.37,11.44,7.55,3.18,2.76,5.61,6.06,7.31,9.93,1.69,3.87,2.54,7.86,2.54,11.99,0,8.69-3.39,16.26-10.17,22.72-7.31,6.25-15.41,9.37-24.31,9.37h-42.74v20.49h48.93c9.74,0,18.16,3.39,25.26,10.17,3.39,2.86,5.93,6.33,7.63,10.41,1.69,4.08,2.54,8.29,2.54,12.63,0,9-3.28,16.63-9.85,22.88-7.31,6.46-15.52,9.69-24.63,9.69h-87.54c-6.99,0-13.64-2.2-19.94-6.59-6.3-4.39-11.15-10.35-14.54-17.87Z"/>
      <path class="cls-4" d="M807.26,752.34c-4.77-6.78-8.77-13.95-12-21.53-3.23-7.57-5.67-15.2-7.31-22.88-1.64-7.68-2.46-15.44-2.46-23.28s.82-15.3,2.46-23.04c1.64-7.73,4.1-15.44,7.39-23.12,3.28-7.68,7.25-14.86,11.92-21.53,7.63-11.12,16.84-20.71,27.64-28.76,10.8-8.05,22.64-14.22,35.51-18.51,12.87-4.29,26.08-6.43,39.64-6.43,10.17,0,20.2,1.22,30.11,3.65,9.9,2.44,19.38,6.01,28.44,10.72,9.06,4.71,17.32,10.35,24.78,16.92,7.47,6.57,14.01,14.04,19.62,22.4,14.51,20.97,21.77,43.53,21.77,67.68,0,11.97-1.85,23.7-5.56,35.19-3.71,11.49-9.11,22.32-16.21,32.49-5.62,8.16-12.29,15.65-20.02,22.48-7.73,6.83-15.86,12.47-24.39,16.92-8.53,4.45-17.87,7.97-28.04,10.57-10.17,2.59-20.34,3.89-30.5,3.89-13.56,0-26.77-2.12-39.64-6.35-12.87-4.24-24.73-10.43-35.59-18.59-10.86-8.15-20.05-17.79-27.56-28.92ZM860.01,684.66c0,10.49,2.25,20.02,6.75,28.6,4.5,8.58,10.54,15.23,18.11,19.94,7.57,4.71,15.86,7.07,24.86,7.07,3.18,0,6.46-.32,9.85-.95,6.04-1.27,11.49-3.5,16.36-6.67,4.87-3.18,9.19-7.2,12.95-12.07,3.76-4.87,6.65-10.3,8.66-16.29,2.01-5.98,3.02-12.42,3.02-19.3,0-3.28-.32-6.78-.95-10.49-1.59-9.21-4.69-17.16-9.29-23.83-4.61-6.67-10.41-11.92-17.4-15.73-6.99-3.81-14.62-5.72-22.88-5.72-9.22,0-17.64,2.36-25.26,7.07-7.63,4.71-13.66,11.36-18.11,19.94-4.45,8.58-6.67,18.06-6.67,28.44Z"/>
      <path class="cls-4" d="M1062.1,793.96c-7.63-9.11-11.44-19.12-11.44-30.03v-161.74c0-8.05,2.14-15.3,6.43-21.77,4.29-6.46,9.98-11.12,17.08-13.98,4.55-1.91,9.11-2.86,13.66-2.86,11.33,0,22.08,5.93,32.25,17.79l82.62,98.03v-77.21c0-10.49,3.76-19.49,11.28-27.01,7.41-7.31,16.21-10.96,26.37-10.96,5.08,0,9.93.93,14.54,2.78,4.61,1.85,8.55,4.58,11.84,8.18,3.39,3.28,6.09,7.34,8.1,12.15,2.01,4.82,3.02,9.77,3.02,14.85v165.71c0,1.59-.21,4.08-.64,7.47-1.06,5.83-3.42,11.04-7.07,15.65-3.65,4.61-8.08,8.18-13.27,10.72-5.19,2.54-10.8,3.81-16.84,3.81-7.2,0-13.72-1.8-19.54-5.4-4.24-2.86-7.36-5.61-9.37-8.26l-85.32-104.7v80.39c0,10.91-3.65,20.02-10.96,27.33-7.1,7.1-15.68,10.65-25.74,10.65-10.91,0-19.91-3.87-27.01-11.6Z"/>
    </g>
  </g>
  <g>
    <path class="cls-10" d="M782.58,499.95c14.44,12.14,26.08,14.68,34.35,14.51,8.88-.18,18.33-2.74,22.25,2.42,1.75,2.29,2.21,5.91.97,8.71-1.92,4.32-7.22,5.16-8.22,5.32-3.74.6-6.58-.82-10.64-2.42-6.63-2.61-9.94-3.91-15.96-7.26-5.43-3.01-13.5-6.86-24.67-10.16"/>
    <path class="cls-10" d="M673.25,514.46c-15.46-2.89-28.23-2.47-37.25-1.45-3.6.41-41.76,4.96-43.05,17.42-.31,3.04,1.61,6.13,3.87,7.74,7.26,5.18,19.56-3.76,36.28-10.16,9.22-3.53,22.4-7.29,39.67-8.22"/>
    <path class="cls-10" d="M661.15,520.75c6.84-.7,11.55.65,14.51,1.94,7.53,3.27,8.42,8.13,17.42,11.61,3.36,1.3,7.8,2.95,12.09.97.32-.15,5.31-2.54,5.81-7.26.35-3.38-1.81-6.04-2.42-6.77-4.74-5.66-10.36-1.33-20.32-6.77-2.5-1.37-5.9-3.7-12.09-6.29-1.01-.42-1.86-.75-2.42-.97"/>
    <path class="cls-12" d="M771.21,42.08c2.43-3.53,11.3-15.62,24.19-16.93,2.81-.29,7.6-.77,11.13,2.42,2.45,2.22,3.64,5.63,3.39,8.71-.45,5.54-5.47,8.84-8.22,10.64-9.55,6.27-20.76,4.27-24.67,3.39"/>
    <path class="cls-10" d="M698.4,449.64c-.73,4.82-2.25,12.12-5.81,20.32-12.86,29.71-39.42,41.36-35.8,49.34,1.79,3.96,9.98,4.78,14.51,4.35,2.03-.19,5.71-.87,10.16-3.87,8.82-5.96,13.78-16.45,18.38-30.48,3.22-9.81,6.87-23.22,9.19-39.67"/>
    <path class="cls-10" d="M779.67,520.27c9.17,4.15,15.37,8.95,19.35,12.58,7.06,6.43,11.43,12.51,21.77,18.38,3.48,1.98,7.52,3.85,12.09,2.9,1.23-.25,5.83-1.4,7.74-5.32,1.7-3.48.35-7.24,0-8.22-3.71-10.39-18.7-10.2-38.7-22.74-4.52-2.84-7.99-5.5-10.16-7.26"/>
    <path class="cls-10" d="M762.26,457.87c-1.28,19.67,3.39,33.8,6.77,41.6,3.81,8.8,7.97,18.03,16.93,20.32,6.15,1.57,14.49-.14,15.96-4.35,2.25-6.43-13.64-12.47-20.8-28.54-5.2-11.67-3.66-23.8-1.45-32.41"/>
    <g>
      <path class="cls-12" d="M655.25,349.26c-19.32,1.04-23.32-72.4-72.75-91.05-18.7-7.06-23.77,1.32-42.4-7.59-33.66-16.1-57.7-62.19-43.96-88.15,6.77-12.78,22.78-20.86,27-22.99,0,0,11.75-5.92,24.99-7.59,37.67-4.74,135.85,67.43,132.56,156.22-1.07,28.91-12.93,60.48-25.44,61.15Z"/>
      <g>
        <path class="cls-6" d="M685.23,269.37c1.14-13.05,2.51-48.71-19.19-84.8-6.71-11.16-28.23-46.95-72.31-58.47-50.09-13.09-93.89,14.43-113.45,34.81,0,0-21.4,22.31-21.65,46.2-.02,2.37-.09,8.26,3.57,10.71,2.3,1.54,5.26,1.18,8.03.45,9.88-2.62,17.17-9.95,27.67-21.42,4.21-4.6,9.19-10.14,14.73-16.51"/>
        <path class="cls-4" d="M685.23,269.37c.85-28.58-6.06-57.41-21.18-81.63-20.69-35.2-55.95-60.98-97.9-60.22-30.85.54-60.99,14.79-82.87,36.27-9.12,9.72-19.55,25.24-21.3,40.21-.66,6.69-1.32,14.75,8.39,11.68,2.4-.62,4.74-1.56,6.96-2.79,4.47-2.47,8.51-5.97,12.4-9.63,7.84-7.38,15.21-15.35,22.9-22.93-3.36,4.24-6.76,8.46-10.16,12.67-8.83,10.36-17.22,22.65-30.72,27.36-3.06.99-6.36,1.75-9.7.42-6.64-2.98-6.68-11.19-6.34-17.35.79-11.47,5.53-22.16,11.45-31.78,2.95-4.77,6.38-9.48,10.12-13.61,27.54-28.71,68.97-45.74,108.77-38.43,36.85,6.32,66.49,32.42,83.66,64.81,14.16,25.66,19.68,55.97,15.5,84.95h0Z"/>
      </g>
      <g>
        <path class="cls-6" d="M528.27,187.47c-8.84,15.89-12.53,29.42-14.28,38.38-6.3,32.17,1.4,61.21-10.27,67.84-.78.44-3.86,2.19-7.14,1.34-3.54-.92-6.46-4.64-8.93-12.94-8.42-28.37,4.11-59.19,7.14-68.29,0,0,0,0,0,0,5.8-9.08,11.6-18.15,17.41-27.23"/>
        <path class="cls-4" d="M528.27,187.47c-7.18,15.54-11.97,31.93-13.26,48.66-1.51,14.85.05,29.93-1.42,44.88-.69,4.91-1.68,9.93-5.51,13.83-3.36,3.05-7.6,4.69-12.12,3.77-6.95-1.73-9.67-9.07-11.52-14.93-5.67-19.23-2.47-39.85,3.98-58.45,1.5-4.22,3.11-8.41,4.78-12.45,1.53-2.22,3.12-4.4,4.68-6.6,4.55-6.35,9.6-13.42,14.33-19.61-2.53,4.78-5.16,9.49-7.79,14.2-2.04,3.46-6.61,11.84-7.82,13.63-6.83,21.58-12.07,45.03-5.39,67.2,1.31,3.62,2.67,8.68,6.38,9.95,3.78.53,6.76-2.2,7.84-5.87,2.24-7.44,1.96-16.36,2.37-24.35.17-25.73,5.76-52.53,20.47-73.85h0Z"/>
      </g>
      <g>
        <g>
          <ellipse class="cls-11" cx="498.3" cy="267.28" rx="25.69" ry="18.53" transform="translate(144.05 708.02) rotate(-79.42)"/>
          <path class="cls-1" d="M544.79,370.03c2.54-16.28-8.54-20.67-11.23-39.22-2.42-16.66,5.25-21.88-.55-36.25-.5-1.24-2.86-7.33-9.12-13.92-3.9-4.1-11.8-12.4-25.06-14.95-13.52-2.61-24.14,2.4-29.18,4.77-3.02,1.42-8.36,4.17-13.53,9.68-10.59,11.3-5.34,18.94-13.61,33.6-9.21,16.33-21.12,16.43-24.64,32.52-.3,1.39-1.31,6.4-.61,11.12,2.44,16.55,25.91,30.47,57.3,35.63,0,.01,0,.02,0,.04,31.35,6.68,58.5,2.2,66.8-12.43,2.35-4.15,3.23-9.19,3.44-10.59Z"/>
          <path class="cls-5" d="M485.51,268.41c-1.33,3.4,14.33,7.69,21.2,22.21,3.46,7.31.86,9.14,2.99,27.43,1.85,15.87,2.92,25.11,8.93,33.61,7.66,10.83,19.86,18.62,23.37,16.03,1.97-1.45.12-5.37-3.84-25.56-1.55-7.91-2.54-12.97-3.16-18.33-2.06-17.68,2.5-19.09.14-27.86-5.48-20.28-32.71-27.33-33.87-27.62-6.07-1.49-14.77-2.35-15.73.1Z"/>
          <path class="cls-4" d="M477.57,397.97c-1.29-.24-2.6-.5-3.91-.78l-.74-.16c-.82-.14-1.63-.29-2.44-.44-32.44-6.06-54.82-21.02-57.41-38.6-.73-4.99.1-10.06.66-12.64,2.25-10.32,7.77-15.16,13.11-19.85,4.06-3.56,8.25-7.24,11.98-13.85,3.35-5.93,4.25-10.59,5.13-15.08,1.16-5.99,2.37-12.18,9.08-19.34,5.47-5.84,11.08-8.86,14.82-10.62,5.03-2.37,16.78-7.9,31.54-5.15.08.02.16.03.25.05,14.59,2.81,23.19,11.85,27.32,16.19,3.04,3.2,7.24,8.43,9.95,15.16l.04.09c3.67,9.1,2.56,15.31,1.49,21.31-.81,4.51-1.64,9.18-.67,15.92,1.09,7.51,3.67,12.46,6.17,17.24,3.29,6.29,6.68,12.8,5.06,23.24-.41,2.61-1.46,7.64-3.94,12.03-8.77,15.48-35.02,21.33-67.46,15.27ZM479.51,389.53l-.03.18c13.48,2.48,25.98,2.82,36.36.95,10.89-1.96,18.43-6.15,21.82-12.13,1.94-3.43,2.74-7.87,2.94-9.15h0c1.2-7.68-1.07-12.02-4.2-18.02-2.69-5.16-5.75-11.01-7.04-19.95-1.17-8.1-.17-13.69.71-18.63,1.02-5.69,1.76-9.81-1-16.64l-.04-.1c-2.21-5.49-5.69-9.82-8.22-12.48-3.8-3.99-10.86-11.42-22.79-13.72-.07-.01-.13-.03-.2-.04-12.07-2.26-21.72,2.29-26.37,4.48-3.11,1.47-7.77,3.97-12.25,8.75-5.04,5.38-5.84,9.48-6.94,15.16-.96,4.92-2.04,10.5-6.06,17.63-4.43,7.87-9.39,12.22-13.77,16.06-5.09,4.46-8.76,7.69-10.42,15.29-.28,1.27-1.13,5.7-.56,9.6.99,6.75,6.46,13.36,15.82,19.09,9.81,6.02,22.95,10.5,37.98,12.97l4.27.7Z"/>
          <path class="cls-7" d="M420.35,346.73c10.13-3.65,33.56-10.56,62.78-5,30.97,5.89,50.95,22.45,58.82,29.75"/>
          <ellipse class="cls-3" cx="479.55" cy="367.67" rx="13.7" ry="43.1" transform="translate(30.06 771.53) rotate(-79.42)"/>
          <ellipse class="cls-1" cx="480.78" cy="361.06" rx="14.2" ry="15.45" transform="translate(37.56 767.35) rotate(-79.42)"/>
          <path class="cls-2" d="M493.25,353.05c-6.82-.74-12.96,2.99-14.04,8.73-.95,5.1,2.4,10.16,7.81,12.47,4.55-1.74,8.04-5.51,8.95-10.36.73-3.92-.36-7.79-2.72-10.85Z"/>
          <path class="cls-4" d="M476.25,385.31c-22.41-4.19-45.5-14.21-43.24-26.33,2.26-12.12,27.42-13.13,49.83-8.94,22.41,4.19,45.5,14.21,43.24,26.33-2.26,12.12-27.42,13.13-49.83,8.94ZM481.29,358.36c-10.9-2.04-21.34-2.61-29.4-1.61-8.28,1.02-10.45,3.28-10.55,3.78s1.12,3.39,8.47,7.33c7.15,3.84,17.1,7.08,28,9.11,10.9,2.04,21.34,2.61,29.4,1.61,8.28-1.02,10.45-3.28,10.55-3.78s-1.12-3.39-8.47-7.33c-7.15-3.84-17.1-7.08-28-9.11Z"/>
        </g>
        <path class="cls-6" d="M451.61,266.3c-7.22,4.4-12.74,10.04-14.91,18.22-.75,2.6-1.21,5.39-1.59,8.53-8.25-11.57,2.37-29.13,16.51-26.75h0Z"/>
        <path class="cls-6" d="M545.82,333.76c16.95,7.52,21.32,31.97,9.11,45.54.82-4.27,1.42-8.3,1.61-12.28.81-12.24-3.45-23.4-10.72-33.26h0Z"/>
      </g>
      <g>
        <path class="cls-6" d="M531.84,181.22c-7.6,11.63-15.78,28.22-18.75,49.1,0,0-4.47,31.49,9.82,59.36,2.4,4.69,5.22,7.7,8.93,8.93.48.16,5.32,1.67,9.82-.89,3.83-2.18,5.25-6.08,5.8-7.59,4.42-12.09-4.11-36.48-6.25-47.31-2.49-12.6-1.14-31.22,16.51-57.13"/>
        <path class="cls-4" d="M531.84,181.22c-8.76,15.48-15.02,34.52-16.37,50.93-.52,7.71-.12,15.5.83,23.16,1.28,10.14,3.92,20.15,8.19,29.43,1.56,3.35,3.18,6.93,5.97,9.09,3.53,2.77,9.35,2.25,11.88-1.43,7.26-10.43-1.19-34.4-3.36-46.59-2.94-12.89-.23-26.76,5.21-38.45,3.63-7.81,8.28-15.03,13.53-21.68-4.25,7.34-7.98,14.94-10.8,22.78-4.06,11.75-5.76,24.09-2.45,36.08,2.23,8.15,4.74,16.37,6.33,24.78,1.2,6.57,2.21,13.61.43,20.41-2.24,10-11.97,15.81-21.67,11.87-5.94-2.49-9.15-8.52-11.49-13.94-4.58-9.96-6.99-20.87-8.01-31.66-.81-8.37-.65-16.84.41-25.19,2.9-17.85,10.41-35.21,21.37-49.59h0Z"/>
      </g>
      <g>
        <path class="cls-6" d="M528.27,153.1c-26.56,12.53-42.62,28.77-51.33,39.28-19.18,23.14-29.61,50.87-24.25,63.16.62,1.43,2.38,5.45,6.39,7.36,5.96,2.84,13.07-.78,15.48-2.01,20.64-10.52,19.36-49.85,46.12-80.57,7.45-8.56,15.08-14.15,20.08-17.41"/>
        <path class="cls-4" d="M528.27,153.1c-30.39,16.65-56.39,42.7-69.07,75.16-3.13,8.96-7.7,21.89-.75,29.73,3.27,3.5,8.1,2.58,12.34.77,10.57-4.32,14.82-15.21,19.09-25.21,6.5-16.43,12.92-33.5,24.03-47.54,7.38-9.43,16.57-17.36,26.86-23.1-9.4,7.09-17.65,15.51-23.97,25.19-9.86,14.5-15.01,31.36-20.99,47.77-3.23,8.41-6.81,17.67-13.82,24.09-7.51,6.67-20.75,11.49-28.79,3.03-9.38-10.37-4.81-25.88-.37-37.25,13.8-33.15,42.42-59.77,75.44-72.65h0Z"/>
      </g>
      <g>
        <path class="cls-6" d="M569.18,213.13c-4.4,4.03-25.58,24.2-22.32,49.1,1.11,8.5,6.13,25.65,16.07,27.23.82.13,5.12.71,8.18-2.01,8.52-7.56-6.92-27.84,1.19-49.76,1.68-4.53,3.91-7.92,5.5-10.04"/>
        <path class="cls-4" d="M569.18,213.13c-15.27,17.91-25.37,38.4-15.34,61.53,1.96,4.56,5.12,10.77,10.33,11.33,17.51,1.07-9.93-33.56,13.64-58.35-7.13,11.66-6.94,24.98-3.54,37.77,1.12,5,2.78,10.09,2.83,15.49.24,7.63-5.92,12.85-13.41,12.25-12.24-1.15-17.24-15.78-19.43-26-4.61-21.11,8.38-41.99,24.93-54h0Z"/>
      </g>
      <g>
        <path class="cls-6" d="M583.91,233.67c-9.3,13.07-11.64,24.98-12.35,31.46-1.26,11.55-.35,33.48,10.12,37.27,3.01,1.09,6.12.43,8.48-.45,3.08-1.14,4.4-4,4.91-4.91,5.07-9.02-3.91-23.23-1.79-35.26,1.11-6.3,5.72-14.57,21.42-22.76"/>
        <path class="cls-4" d="M583.91,233.67c-6.34,11.47-10.2,24.07-9.89,37.11.19,8.23,1.29,31.72,13.61,28.19,2.15-.46,3.22-1.54,4.28-3.58,2.49-4.99.74-10.32-.11-15.79-2.34-10.92-3.07-21.49,5.68-29.99,4.99-4.94,11.02-8.19,17.23-10.59-5.45,3.8-10.77,7.84-14.53,12.92-9.31,11.38-1.37,23.82-.17,36.55.55,6.23-1.59,13.11-7.48,16.35-2.2,1.02-3.78,1.41-6.06,1.69-17.79.88-18.99-23.2-18.14-35.95.81-13.59,6.51-26.91,15.58-36.92h0Z"/>
      </g>
    </g>
    <path class="cls-12" d="M792.13,53.36c1.34-.29,13.51-2.76,19.51,4.06,1,1.13,3.68,4.17,2.95,7.77-.59,2.91-3.07,4.46-3.38,4.64-3.42,2.05-7.49.49-9.72-.36-6.35-2.44-9.69-7.8-11-10.25"/>
    <g>
      <path class="cls-12" d="M672.12,66.27c3.11-17.33,8.19-36.64,24.59-48.38,14.43-10.33,31.72-10.64,37.25-10.64,5.99,0,21.2-.39,35.07,8.47,9.09,5.8,18.54,16.11,25,37.49,16.48,54.58-17.27,79.62-10.16,151.9,1.68,17.12,6.82,37.29,17.09,77.64,5.44,21.36,8.1,29.54,14.27,38.94,12.72,19.39,23.13,18.23,35.8,37.25,4.21,6.32,17.81,26.74,13.79,52-3.48,21.82-18.14,35.29-24.91,41.36-20.39,18.29-47.53,25.24-67.73,23.22-7.42-.74-19.96-3.3-32.17-7.01-5.86-1.78-10.66-3.54-14.03-4.84-1.24,1.22-9.13,8.75-21.04,7.98-14.19-.91-21.42-12.77-22.01-13.79-3.8.23-9.16.29-15.48-.48-2.9-.36-43.15-5.72-65.07-37.97-6.21-9.15-12.91-23.25-14.03-45.96-4.22-85.22,78.65-109.68,82.81-197.37,1.53-32.25-8.3-58.13.97-109.81Z"/>
      <g>
        <path class="cls-4" d="M691.15,440.93c7.34,4.96,15.4,10.01,24.19,15,8.05,4.56,15.82,8.57,23.22,12.09"/>
        <path class="cls-4" d="M691.15,440.93c15.77,9.19,32.16,17.15,48.97,23.81l-3.12,6.55c-16.09-9-31.43-19.17-45.85-30.37,0,0,14.42,11.2,0,0Z"/>
      </g>
    </g>
    <g>
      <path class="cls-8" d="M724.39,92.54c11.98-1.28,23.97-2.56,35.95-3.84,2.32-18.83-2.94-34.37-11.98-38.35-6.07-2.67-11.98-1.44-11.98-1.44s-5.44,1.14-10.07,5.75c-7.05,7.03-7.84,22.04-1.92,37.87Z"/>
      <g>
        <ellipse class="cls-4" cx="730.94" cy="78.09" rx="8.74" ry="12.94"/>
        <ellipse class="cls-6" cx="734.77" cy="70.66" rx="3.15" ry="4.07"/>
      </g>
    </g>
    <g>
      <path class="cls-8" d="M684.32,91.13c-7.66-1.9-12.19-6.63-13.75-8.41.72-18.41,8.09-31.46,17.03-32.92,4.24-.69,7.76,1.41,8.7,2.02,8.36,5.41,10.5,20.76,4.79,38.05-2.14.89-8.68,3.28-16.78,1.26Z"/>
      <g>
        <ellipse class="cls-4" cx="685.2" cy="77.76" rx="8.13" ry="12.04"/>
        <ellipse class="cls-6" cx="688.72" cy="71.11" rx="3.15" ry="4.07"/>
      </g>
    </g>
    <path class="cls-4" d="M663.79,55.76c.49-18.68,25.11-29.3,39.03-16.81-4.19-.3-8.01-.27-11.65.15-11.31,1.23-20.35,7.71-27.38,16.66h0Z"/>
    <path class="cls-12" d="M813.63,456.95c8.93,8.14,68.64,62.07,94.62,61.6,2.11-.04,3.86-.43,5.31-1.59,11.24-9.02-10.08-53.32-24.66-80.81"/>
    <g>
      <path class="cls-13" d="M741.37,105.51c.1,1.41-8.38,3.94-27.33,6.23-12.71,1.54-23.31,2.14-30.68,2.4,1.02-3.77,2.66-9.13,5.27-15.34,4.51-10.73,6.77-16.09,11.51-17.74,6.25-2.17,14.31,2.03,18.22,7.19,3.31,4.38,1.57,6.83,4.79,10.55,6.35,7.33,18.1,5,18.22,6.71Z"/>
      <path class="cls-9" d="M727.95,109.83c-11.39-.17-16.31-3.59-18.7-6.71-2.49-3.26-2.53-6.99-6.23-9.59-3.24-2.27-7.19-2.27-10.04-1.91"/>
    </g>
    <path class="cls-4" d="M725.98,38.75c5.24-9.22,18.18-12.44,27.89-8.37,9.85,3.7,17.08,14.95,14.51,25.25-1.84-4.62-4.17-8.44-7.1-11.55-9.12-9.89-23.3-11.26-35.31-5.33h0Z"/>
    <g>
      <path class="cls-6" d="M734.89,274.04c-6.57,3.84-21.42,13.75-29.2,32.39-6.44,15.42-4.88,29.25-3.98,36.37,5.59,44.56,48.57,91.87,101.68,119.2,22.53,11.6,68.53,35.28,87.34,18.32,22.86-20.61-8.74-88.3-16.71-104.55-.55-1.13-1.03-2.09-1.34-2.71-17.89-35.48-40.75-57.15-49.65-65.04-9.41-8.35-23.08-18.97-41.42-28.67"/>
      <path class="cls-4" d="M734.89,274.04c-34.46,22.32-38.96,58.84-22.64,94.4,7.47,16.16,18.31,30.74,30.73,43.5,20.73,21.68,46.05,38.29,73.03,51.18,17.02,8.06,65.33,32.25,75.83,7.54,8.6-22.41-7.81-62.54-16.91-84.13-18.8-44.57-51.13-82.91-93.31-107.18,36.04,16.88,66.43,45.55,87.16,79.57,15.6,26.33,43.85,85.77,31.66,115.4-7.47,18.42-28.81,18.65-45.3,14.41-15.19-3.68-29.57-10.34-43.32-17.14-47.95-22.99-98.17-64.71-111-118.49-7.61-32.7,3.9-63.06,34.08-79.05h0Z"/>
    </g>
    <path class="cls-4" d="M725.86,370.15c16.23,10.68,35.39,17.46,54.89,15.77,12.16-1.03,24.79-5.5,32.79-14.87,12.32-15.27,8.84-37.22,2.58-54.53,11.12,16.96,15.97,41.46,2.77,58.86-9.07,11.44-23.56,16.71-37.7,17.39-20.57,1.01-41.22-7.86-55.34-22.62h0Z"/>
    <path class="cls-4" d="M761.43,412.62c20,11.94,39.76,23.87,60.55,34.09,11.51,5.19,31.15,15.43,43.29,10.44,10.11-3.94,6.94-22.22,5.68-30.91-3.69-21.57-11.42-42.03-21.64-61.67,13.96,18.68,24.03,40.84,28.44,63.99,1.52,9.74,3.38,20.99-2.73,29.8-11.17,13.27-30.31,5.77-43.22.27-25.59-11.82-48.81-28.09-70.37-46.01h0Z"/>
    <g>
      <path class="cls-6" d="M905.33,518.82c-8.5-9.38-16.99-18.76-25.49-28.14"/>
      <polygon class="cls-4" points="902.64 521.25 879.84 490.68 908.02 516.38 902.64 521.25 902.64 521.25"/>
    </g>
    <g>
      <path class="cls-6" d="M914.72,516.57c-8.5-9.38-16.99-18.76-25.49-28.14"/>
      <polygon class="cls-4" points="912.03 519 889.24 488.42 917.41 514.13 912.03 519 912.03 519"/>
    </g>
    <g>
      <path class="cls-6" d="M915.78,507.54c-5.87-6.49-11.75-12.97-17.62-19.46"/>
      <polygon class="cls-4" points="913.09 509.97 898.16 488.08 918.47 505.1 913.09 509.97 913.09 509.97"/>
    </g>
    <path class="cls-10" d="M787.9,524.14c-8.46-3.22-15.38-3.23-19.35-2.9-3.42.28-15.9,1.3-17.42,7.26-.58,2.26.45,5.13,2.42,6.77,3.22,2.69,8.13,1.39,24.67-3.87,4.24-1.35,9.29-2.97,15-4.84"/>
    <path class="cls-4" d="M701.63,432.92c-46.39-11.26-76.79-59-68.73-105.84,1.09-6.44,2.75-12.78,5.34-18.71-4.25,26.52-.73,53.89,12.55,77.22,11.58,20.67,29.65,36.51,50.85,47.34h0Z"/>
    <path class="cls-4" d="M656.37,228.27c-4.42,18.66-11.02,48.23,18.05,45.64,21.26-2.18,40.07-13.77,58.05-24.79-16.66,15.15-42.65,32.19-66.31,29.27-24.8-3.91-17.36-34.17-9.78-50.12h0Z"/>
  </g>
</svg>