<?xml version="1.0" encoding="UTF-8"?>
<svg id="katman_1" data-name="katman 1" xmlns="http://www.w3.org/2000/svg" xmlns:xlink="http://www.w3.org/1999/xlink" viewBox="0 0 1331.25 852.59">
  <defs>
    <style>
      .cls-1, .cls-2 {
        fill: #efb45c;
      }

      .cls-1, .cls-3, .cls-4, .cls-5, .cls-6, .cls-7, .cls-8, .cls-9 {
        stroke-width: 0px;
      }

      .cls-10, .cls-11, .cls-2, .cls-12, .cls-13, .cls-14, .cls-15, .cls-16, .cls-17 {
        stroke: #18191e;
      }

      .cls-10, .cls-11, .cls-2, .cls-12, .cls-13, .cls-14, .cls-15, .cls-17 {
        stroke-miterlimit: 10;
      }

      .cls-10, .cls-12, .cls-13, .cls-14, .cls-15, .cls-16 {
        stroke-width: 7.2px;
      }

      .cls-10, .cls-6 {
        fill: #c0ccdc;
      }

      .cls-11 {
        stroke-width: 4.8px;
      }

      .cls-11, .cls-17 {
        fill: none;
      }

      .cls-2 {
        stroke-width: 8.43px;
      }

      .cls-12 {
        fill: url(#Adsız_degrade_3);
      }

      .cls-3 {
        opacity: .7;
      }

      .cls-3, .cls-7 {
        fill: #d97e41;
      }

      .cls-13 {
        fill: #f37d6b;
      }

      .cls-4 {
        fill: #bc643c;
      }

      .cls-5, .cls-15 {
        fill: #18191e;
      }

      .cls-14 {
        fill: #ff9a8e;
      }

      .cls-8, .cls-16 {
        fill: #fff;
      }

      .cls-9 {
        fill: url(#Adsız_degrade_2);
      }

      .cls-16 {
        stroke-linejoin: round;
      }

      .cls-17 {
        stroke-width: 8.9px;
      }
    </style>
    <linearGradient id="Adsız_degrade_3" data-name="Adsız degrade 3" x1="638.01" y1="112.28" x2="570.54" y2="286.69" gradientUnits="userSpaceOnUse">
      <stop offset=".54" stop-color="#c0ccdc"/>
      <stop offset=".62" stop-color="#c0ccdc"/>
      <stop offset=".7" stop-color="#c0ccdc"/>
      <stop offset="1" stop-color="#18191e"/>
    </linearGradient>
    <linearGradient id="Adsız_degrade_2" data-name="Adsız degrade 2" x1="758.33" y1="333.65" x2="891.43" y2="478.03" gradientUnits="userSpaceOnUse">
      <stop offset="0" stop-color="#c0ccdc"/>
      <stop offset="0" stop-color="#c0ccdc"/>
      <stop offset="1" stop-color="#18191e"/>
    </linearGradient>
  </defs>
  <g>
    <rect class="cls-5" x="5.86" y="522.53" width="1319.53" height="324.41" rx="62.08" ry="62.08"/>
    <g>
      <path class="cls-8" d="M64.2,793.96c-7.2-7.84-10.8-16.95-10.8-27.33v-158.88c0-12.5,3.5-22.51,10.49-30.03,6.99-7.52,15.99-11.28,27.01-11.28h69.91c17.48,0,33.05,3.73,46.71,11.2,13.66,7.47,24.25,17.64,31.78,30.5,7.52,12.87,11.28,27.2,11.28,42.98-.53,22.56-7.79,41.26-21.77,56.08-13.98,14.83-32.84,23.67-56.56,26.53-4.87.64-9.64.95-14.3.95h-29.39v32.57c0,11.23-3.76,20.44-11.28,27.64-7.1,7.1-15.78,10.65-26.06,10.65s-19.6-3.87-27.01-11.6ZM128.54,668.93h30.03c4.98,0,9.21-1.75,12.71-5.24,3.71-3.71,5.56-7.89,5.56-12.55s-1.75-8.9-5.24-12.39c-3.81-3.49-8.16-5.24-13.03-5.24h-30.03v35.43Z"/>
      <path class="cls-8" d="M272.17,794.92c-7.42-7.41-11.12-16.52-11.12-27.33v-165.71c0-10.59,3.68-19.51,11.04-26.77,7.36-7.25,16.28-10.88,26.77-10.88,6.67,0,12.89,1.67,18.67,5,5.77,3.34,10.33,7.92,13.66,13.74,3.34,5.83,5,12.23,5,19.22v166.03c0,4.98-.93,9.83-2.78,14.54-1.85,4.71-4.58,8.87-8.18,12.47-7.41,7.1-16.21,10.64-26.37,10.64-10.8,0-19.7-3.65-26.69-10.96Z"/>
      <path class="cls-8" d="M497.93,738.2c11.23-2.12,19.17-6.41,23.83-12.87h-19.54c-9.32,0-17.19-3.28-23.59-9.85-6.41-6.57-9.61-14.46-9.61-23.67.21-6.14,1.75-11.68,4.61-16.6,2.86-4.92,6.8-8.87,11.84-11.84,5.03-2.96,10.51-4.45,16.44-4.45h63.07c23.2,0,34.79,12.76,34.79,38.29,0,7.41-.74,15.04-2.22,22.88-1.48,9.85-5.14,20.02-10.96,30.5-6.46,11.55-14.7,21.48-24.71,29.79-10.01,8.32-21.5,14.64-34.48,18.99-12.98,4.34-27.25,6.51-42.82,6.51-8.9,0-18.75-.85-29.55-2.54-14.83-2.54-28.25-6.96-40.28-13.27-12.02-6.3-22.54-14.43-31.54-24.39-9-9.95-16.21-21.29-21.61-34-6.25-15.04-9.37-30.29-9.37-45.76,0-20.34,5.16-39.59,15.49-57.75,10.33-18.16,24.92-33.18,43.77-45.04,20.55-12.81,43.95-19.22,70.22-19.22,3.39,0,8.26.21,14.62.64,11.33.95,22.4,3.13,33.21,6.51,10.38,3.39,20.12,7.84,29.23,13.35,18.53,12.18,27.8,25.21,27.8,39.08,0,8.26-3.81,15.73-11.44,22.4-5.4,4.77-11.92,7.15-19.54,7.15-5.62,0-11.6-1.32-17.95-3.97h-.32l-13.66-7.15c-2.97-1.69-5.24-2.86-6.83-3.49-13.24-6.14-25.58-9.22-37.02-9.22-9.21,0-17.48,1.83-24.78,5.48-7.31,3.65-13.4,9.03-18.27,16.13-4.87,7.1-8.1,15.31-9.69,24.63-.64,2.97-.95,5.88-.95,8.74,0,3.71.32,7.31.95,10.8,1.91,9.43,5.3,17.5,10.17,24.23,4.87,6.73,11.04,11.92,18.51,15.57,7.47,3.65,15.91,5.48,25.34,5.48,5.72,0,11.33-.69,16.84-2.07Z"/>
      <path class="cls-8" d="M618.68,778.55c-2.01-4.66-3.02-9.43-3.02-14.3v-159.67c0-7.09,1.64-13.56,4.93-19.38,3.28-5.82,7.79-10.41,13.5-13.74,5.72-3.34,12.18-5,19.38-5h89.45c5.4,0,10.56,1.46,15.49,4.37,4.92,2.91,8.84,6.86,11.76,11.84,2.91,4.98,4.37,10.54,4.37,16.68s-1.46,11.6-4.37,16.68c-2.91,5.08-6.83,9.11-11.76,12.08-4.93,2.97-10.3,4.45-16.13,4.45h-51.48v19.86h42.42c4.55,0,9.06.93,13.51,2.78,4.45,1.85,8.26,4.37,11.44,7.55,3.18,2.76,5.61,6.06,7.31,9.93,1.69,3.87,2.54,7.86,2.54,11.99,0,8.69-3.39,16.26-10.17,22.72-7.31,6.25-15.41,9.37-24.31,9.37h-42.74v20.49h48.93c9.74,0,18.16,3.39,25.26,10.17,3.39,2.86,5.93,6.33,7.63,10.41,1.69,4.08,2.54,8.29,2.54,12.63,0,9-3.28,16.63-9.85,22.88-7.31,6.46-15.52,9.69-24.63,9.69h-87.54c-6.99,0-13.64-2.2-19.94-6.59-6.3-4.39-11.15-10.35-14.54-17.87Z"/>
      <path class="cls-8" d="M807.26,752.34c-4.77-6.78-8.77-13.95-12-21.53-3.23-7.57-5.67-15.2-7.31-22.88-1.64-7.68-2.46-15.44-2.46-23.28s.82-15.3,2.46-23.04c1.64-7.73,4.1-15.44,7.39-23.12,3.28-7.68,7.25-14.86,11.92-21.53,7.63-11.12,16.84-20.71,27.64-28.76,10.8-8.05,22.64-14.22,35.51-18.51,12.87-4.29,26.08-6.43,39.64-6.43,10.17,0,20.2,1.22,30.11,3.65,9.9,2.44,19.38,6.01,28.44,10.72,9.06,4.71,17.32,10.35,24.78,16.92,7.47,6.57,14.01,14.04,19.62,22.4,14.51,20.97,21.77,43.53,21.77,67.68,0,11.97-1.85,23.7-5.56,35.19-3.71,11.49-9.11,22.32-16.21,32.49-5.62,8.16-12.29,15.65-20.02,22.48-7.73,6.83-15.86,12.47-24.39,16.92-8.53,4.45-17.87,7.97-28.04,10.57-10.17,2.59-20.34,3.89-30.5,3.89-13.56,0-26.77-2.12-39.64-6.35-12.87-4.24-24.73-10.43-35.59-18.59-10.86-8.15-20.05-17.79-27.56-28.92ZM860.01,684.66c0,10.49,2.25,20.02,6.75,28.6,4.5,8.58,10.54,15.23,18.11,19.94,7.57,4.71,15.86,7.07,24.86,7.07,3.18,0,6.46-.32,9.85-.95,6.04-1.27,11.49-3.5,16.36-6.67,4.87-3.18,9.19-7.2,12.95-12.07,3.76-4.87,6.65-10.3,8.66-16.29,2.01-5.98,3.02-12.42,3.02-19.3,0-3.28-.32-6.78-.95-10.49-1.59-9.21-4.69-17.16-9.29-23.83-4.61-6.67-10.41-11.92-17.4-15.73-6.99-3.81-14.62-5.72-22.88-5.72-9.22,0-17.64,2.36-25.26,7.07-7.63,4.71-13.66,11.36-18.11,19.94-4.45,8.58-6.67,18.06-6.67,28.44Z"/>
      <path class="cls-8" d="M1062.1,793.96c-7.63-9.11-11.44-19.12-11.44-30.03v-161.74c0-8.05,2.14-15.3,6.43-21.77,4.29-6.46,9.98-11.12,17.08-13.98,4.55-1.91,9.11-2.86,13.66-2.86,11.33,0,22.08,5.93,32.25,17.79l82.62,98.03v-77.21c0-10.49,3.76-19.49,11.28-27.01,7.41-7.31,16.21-10.96,26.37-10.96,5.08,0,9.93.93,14.54,2.78,4.61,1.85,8.55,4.58,11.84,8.18,3.39,3.28,6.09,7.34,8.1,12.15,2.01,4.82,3.02,9.77,3.02,14.85v165.71c0,1.59-.21,4.08-.64,7.47-1.06,5.83-3.42,11.04-7.07,15.65-3.65,4.61-8.08,8.18-13.27,10.72-5.19,2.54-10.8,3.81-16.84,3.81-7.2,0-13.72-1.8-19.54-5.4-4.24-2.86-7.36-5.61-9.37-8.26l-85.32-104.7v80.39c0,10.91-3.65,20.02-10.96,27.33-7.1,7.1-15.68,10.65-25.74,10.65-10.91,0-19.91-3.87-27.01-11.6Z"/>
    </g>
  </g>
  <g>
    <g>
      <path class="cls-13" d="M783.23,497.67c14.32,12.04,25.86,14.56,34.06,14.39,8.8-.18,18.17-2.71,22.07,2.4,1.73,2.27,2.19,5.86.96,8.63-1.9,4.28-7.16,5.12-8.16,5.28-3.71.59-6.53-.81-10.55-2.4-6.57-2.59-9.86-3.88-15.83-7.2-5.38-2.99-13.38-6.81-24.47-10.07"/>
      <path class="cls-13" d="M674.81,512.07c-15.33-2.86-27.99-2.45-36.94-1.44-3.57.4-41.42,4.92-42.7,17.27-.31,3.01,1.6,6.08,3.84,7.68,7.2,5.14,19.4-3.72,35.98-10.07,9.14-3.5,22.21-7.23,39.34-8.16"/>
      <path class="cls-13" d="M662.82,518.3c6.78-.7,11.45.64,14.39,1.92,7.47,3.24,8.35,8.06,17.27,11.51,3.33,1.29,7.74,2.92,11.99.96.32-.15,5.27-2.52,5.76-7.2.35-3.35-1.79-5.99-2.4-6.72-4.7-5.62-10.28-1.31-20.15-6.72-2.48-1.36-5.85-3.66-11.99-6.24-1-.42-1.84-.75-2.4-.96"/>
      <path class="cls-10" d="M771.96,43.62c2.4-3.5,11.21-15.49,23.99-16.79,2.79-.28,7.54-.77,11.03,2.4,2.43,2.2,3.61,5.59,3.36,8.63-.45,5.5-5.42,8.76-8.16,10.55-9.47,6.21-20.59,4.24-24.47,3.36"/>
      <path class="cls-13" d="M699.76,447.78c-.73,4.78-2.24,12.02-5.76,20.15-12.76,29.46-39.09,41.01-35.5,48.93,1.78,3.92,9.9,4.74,14.39,4.32,2.02-.19,5.67-.86,10.07-3.84,8.75-5.91,13.67-16.32,18.23-30.22,3.19-9.73,6.81-23.02,9.11-39.34"/>
      <path class="cls-13" d="M780.35,517.82c9.09,4.12,15.25,8.88,19.19,12.47,7,6.38,11.33,12.4,21.59,18.23,3.45,1.96,7.46,3.81,11.99,2.88,1.22-.25,5.78-1.39,7.68-5.28,1.68-3.45.35-7.18,0-8.16-3.68-10.3-18.55-10.11-38.38-22.55-4.49-2.81-7.93-5.46-10.07-7.2"/>
      <path class="cls-13" d="M763.08,455.94c-1.27,19.51,3.36,33.52,6.72,41.26,3.78,8.73,7.91,17.88,16.79,20.15,6.1,1.56,14.37-.14,15.83-4.32,2.23-6.37-13.52-12.36-20.63-28.3-5.16-11.57-3.63-23.6-1.44-32.14"/>
      <g>
        <path class="cls-12" d="M656.96,348.24c-19.15,1.03-23.13-71.79-72.15-90.29-18.54-7-23.57,1.31-42.05-7.52-33.38-15.97-57.22-61.67-43.6-87.42,6.71-12.68,22.59-20.69,26.78-22.79,0,0,11.65-5.87,24.79-7.52,37.35-4.7,134.72,66.86,131.45,154.91-1.06,28.67-12.83,59.97-25.23,60.64Z"/>
        <g>
          <path class="cls-6" d="M531.04,187.8c-8.76,15.76-12.42,29.18-14.16,38.06-6.25,31.9,1.38,60.7-10.18,67.28-.77.44-3.82,2.18-7.08,1.33-3.51-.91-6.41-4.6-8.85-12.84-8.35-28.13,4.07-58.69,7.08-67.72,0,0,0,0,0,0,5.75-9,11.51-18,17.26-27"/>
          <path class="cls-5" d="M531.04,187.8c-7.12,15.41-11.87,31.66-13.15,48.25-1.5,14.73.05,29.68-1.4,44.51-.68,4.87-1.67,9.85-5.47,13.71-3.33,3.03-7.54,4.65-12.02,3.74-6.9-1.71-9.59-9-11.42-14.81-5.63-19.07-2.45-39.52,3.95-57.96,1.49-4.19,3.08-8.34,4.74-12.35,1.52-2.2,3.09-4.36,4.64-6.54,4.52-6.3,9.52-13.31,14.21-19.44-2.51,4.74-5.12,9.41-7.72,14.08-2.02,3.44-6.55,11.74-7.76,13.51-6.78,21.4-11.97,44.65-5.34,66.64,1.3,3.59,2.65,8.61,6.33,9.86,3.74.52,6.7-2.18,7.78-5.82,2.22-7.38,1.94-16.22,2.35-24.15.17-25.51,5.72-52.09,20.3-73.24h0Z"/>
        </g>
        <g>
          <path class="cls-6" d="M686.69,269.02c1.13-12.95,2.49-48.3-19.03-84.1-6.66-11.07-28-46.56-71.7-57.98-49.67-12.98-93.1,14.31-112.5,34.52,0,0-21.22,22.12-21.47,45.81-.02,2.35-.09,8.19,3.54,10.62,2.28,1.53,5.22,1.17,7.97.44,9.8-2.6,17.03-9.87,27.44-21.25,4.17-4.56,9.11-10.06,14.61-16.38"/>
          <path class="cls-5" d="M686.69,269.02c.84-28.34-6.01-56.93-21-80.95-20.52-34.91-55.48-60.47-97.09-59.72-30.6.54-60.48,14.67-82.18,35.96-9.04,9.64-19.39,25.03-21.12,39.87-.65,6.64-1.31,14.63,8.32,11.58,2.38-.61,4.7-1.55,6.91-2.77,4.43-2.45,8.44-5.92,12.3-9.55,7.77-7.32,15.08-15.23,22.71-22.73-3.33,4.21-6.7,8.39-10.08,12.56-8.75,10.28-17.07,22.46-30.46,27.14-3.03.98-6.31,1.73-9.62.41-6.58-2.96-6.62-11.1-6.28-17.2.79-11.38,5.48-21.98,11.35-31.52,2.93-4.73,6.33-9.41,10.03-13.49,27.31-28.47,68.39-45.36,107.87-38.11,36.55,6.27,65.93,32.15,82.96,64.27,14.04,25.45,19.51,55.5,15.37,84.24h0Z"/>
        </g>
        <g>
          <ellipse class="cls-17" cx="498.41" cy="266.56" rx="25.57" ry="18.45" transform="translate(144.84 707.54) rotate(-79.42)"/>
          <path class="cls-1" d="M544.69,368.86c2.52-16.2-8.51-20.58-11.18-39.05-2.41-16.58,5.22-21.79-.55-36.09-.5-1.24-2.85-7.3-9.08-13.85-3.89-4.08-11.74-12.35-24.94-14.89-13.46-2.59-24.04,2.39-29.05,4.75-3.01,1.42-8.33,4.15-13.47,9.64-10.55,11.25-5.31,18.86-13.55,33.46-9.17,16.26-21.03,16.35-24.53,32.38-.3,1.38-1.3,6.37-.61,11.07,2.43,16.48,25.79,30.34,57.05,35.47,0,.01,0,.02,0,.04,31.21,6.65,58.25,2.19,66.5-12.38,2.34-4.14,3.21-9.15,3.43-10.54Z"/>
          <path class="cls-7" d="M485.67,267.69c-1.33,3.38,14.27,7.66,21.1,22.11,3.44,7.28.86,9.1,2.97,27.3,1.84,15.8,2.91,25,8.89,33.46,7.63,10.78,19.77,18.54,23.26,15.95,1.96-1.45.12-5.35-3.83-25.45-1.55-7.87-2.53-12.91-3.15-18.25-2.06-17.6,2.49-19.01.13-27.73-5.45-20.19-32.56-27.21-33.72-27.5-6.04-1.48-14.71-2.34-15.66.1Z"/>
          <path class="cls-5" d="M477.77,396.68c-1.29-.24-2.59-.5-3.89-.78l-.74-.16c-.82-.14-1.63-.28-2.43-.43-32.3-6.03-54.58-20.93-57.16-38.42-.73-4.96.1-10.02.66-12.59,2.24-10.28,7.74-15.1,13.05-19.76,4.04-3.54,8.21-7.21,11.92-13.79,3.33-5.91,4.23-10.54,5.1-15.02,1.16-5.96,2.36-12.12,9.04-19.25,5.45-5.81,11.03-8.82,14.75-10.57,5.01-2.36,16.7-7.87,31.4-5.12.08.02.16.03.25.05,14.53,2.8,23.09,11.8,27.2,16.12,3.03,3.19,7.21,8.39,9.9,15.09l.04.09c3.66,9.06,2.55,15.24,1.48,21.22-.81,4.49-1.64,9.14-.66,15.85,1.08,7.48,3.66,12.4,6.14,17.16,3.27,6.27,6.65,12.75,5.04,23.14-.4,2.6-1.45,7.61-3.93,11.98-8.73,15.41-34.86,21.23-67.16,15.2ZM479.7,388.28l-.03.18c13.42,2.47,25.86,2.8,36.2.94,10.84-1.95,18.35-6.13,21.72-12.07,1.93-3.41,2.73-7.84,2.93-9.11h0c1.19-7.65-1.06-11.97-4.18-17.94-2.68-5.14-5.72-10.96-7.01-19.86-1.17-8.06-.17-13.63.71-18.55,1.02-5.67,1.75-9.77-1-16.57l-.04-.1c-2.2-5.46-5.66-9.77-8.19-12.42-3.78-3.97-10.81-11.37-22.69-13.65-.07-.01-.13-.03-.2-.04-12.02-2.25-21.63,2.28-26.26,4.46-3.1,1.46-7.73,3.95-12.19,8.71-5.02,5.35-5.81,9.44-6.91,15.09-.95,4.9-2.03,10.45-6.04,17.55-4.42,7.83-9.35,12.16-13.71,15.99-5.06,4.44-8.72,7.65-10.37,15.22-.28,1.26-1.13,5.68-.56,9.56.99,6.72,6.44,13.3,15.75,19.01,9.76,5.99,22.84,10.46,37.81,12.91l4.25.7Z"/>
          <path class="cls-2" d="M420.79,345.66c10.09-3.64,33.41-10.51,62.5-4.98,30.83,5.87,50.73,22.35,58.56,29.62"/>
          <ellipse class="cls-4" cx="479.73" cy="366.51" rx="13.64" ry="42.91" transform="translate(31.35 770.77) rotate(-79.42)"/>
          <ellipse class="cls-1" cx="480.96" cy="359.93" rx="14.14" ry="15.38" transform="translate(38.82 766.61) rotate(-79.42)"/>
          <path class="cls-3" d="M493.38,351.95c-6.79-.73-12.91,2.98-13.97,8.69-.95,5.08,2.39,10.12,7.77,12.42,4.53-1.73,8.01-5.48,8.91-10.31.73-3.9-.36-7.75-2.71-10.8Z"/>
          <path class="cls-5" d="M476.45,384.07c-22.31-4.17-45.3-14.15-43.05-26.21s27.3-13.07,49.61-8.9,45.3,14.15,43.05,26.21c-2.25,12.06-27.3,13.07-49.61,8.9ZM481.47,357.25c-10.85-2.03-21.25-2.6-29.27-1.61-8.24,1.02-10.41,3.26-10.5,3.76s1.11,3.37,8.43,7.3c7.12,3.82,17.02,7.04,27.88,9.07,10.85,2.03,21.25,2.6,29.27,1.61,8.24-1.02,10.41-3.26,10.5-3.76s-1.11-3.37-8.43-7.3c-7.12-3.82-17.02-7.04-27.88-9.07Z"/>
        </g>
        <g>
          <path class="cls-6" d="M534.58,181.6c-7.54,11.54-15.65,27.98-18.59,48.69,0,0-4.43,31.22,9.74,58.87,2.38,4.65,5.17,7.64,8.85,8.85.47.16,5.27,1.66,9.74-.89,3.8-2.16,5.21-6.03,5.75-7.52,4.38-11.99-4.08-36.18-6.2-46.92-2.47-12.49-1.13-30.96,16.38-56.65"/>
          <path class="cls-5" d="M534.58,181.6c-8.69,15.35-14.9,34.24-16.23,50.51-.52,7.65-.12,15.37.83,22.97,1.27,10.06,3.89,19.98,8.12,29.18,1.54,3.32,3.16,6.87,5.92,9.01,3.5,2.75,9.27,2.23,11.78-1.41,7.2-10.34-1.18-34.11-3.33-46.2-2.92-12.78-.23-26.53,5.17-38.13,3.59-7.75,8.21-14.9,13.42-21.5-4.22,7.28-7.91,14.82-10.71,22.59-4.03,11.65-5.71,23.89-2.43,35.77,2.21,8.08,4.7,16.23,6.28,24.57,1.19,6.52,2.2,13.5.43,20.24-2.22,9.92-11.87,15.68-21.49,11.77-5.89-2.47-9.08-8.45-11.4-13.82-4.55-9.88-6.93-20.7-7.95-31.4-.8-8.3-.65-16.7.41-24.98,2.87-17.7,10.32-34.91,21.2-49.18h0Z"/>
        </g>
        <g>
          <path class="cls-6" d="M531.04,153.72c-26.34,12.42-42.27,28.53-50.9,38.95-19.02,22.95-29.36,50.45-24.05,62.63.62,1.42,2.36,5.4,6.34,7.3,5.91,2.82,12.96-.77,15.35-1.99,20.47-10.44,19.2-49.43,45.73-79.89,7.39-8.49,14.95-14.03,19.92-17.26"/>
          <path class="cls-5" d="M531.04,153.72c-30.14,16.51-55.92,42.35-68.49,74.54-3.1,8.88-7.63,21.71-.74,29.48,3.24,3.47,8.04,2.56,12.23.77,10.48-4.28,14.7-15.09,18.93-25,6.45-16.29,12.81-33.22,23.83-47.15,7.32-9.35,16.43-17.22,26.64-22.91-9.32,7.03-17.5,15.39-23.77,24.98-9.78,14.38-14.88,31.09-20.82,47.37-3.2,8.34-6.75,17.52-13.7,23.89-7.45,6.62-20.57,11.4-28.55,3-9.31-10.28-4.77-25.66-.37-36.94,13.68-32.88,42.07-59.27,74.81-72.04h0Z"/>
        </g>
        <g>
          <path class="cls-6" d="M571.61,213.25c-4.36,4-25.36,24-22.13,48.69,1.1,8.43,6.08,25.44,15.93,27,.81.13,5.07.7,8.11-1.99,8.45-7.49-6.86-27.6,1.18-49.35,1.66-4.5,3.88-7.86,5.46-9.96"/>
          <path class="cls-5" d="M571.61,213.25c-15.15,17.76-25.16,38.08-15.21,61.01,1.95,4.53,5.08,10.68,10.24,11.24,17.36,1.07-9.84-33.28,13.52-57.87-7.07,11.57-6.88,24.77-3.51,37.45,1.11,4.96,2.76,10.01,2.8,15.36.24,7.57-5.87,12.75-13.3,12.15-12.14-1.14-17.1-15.65-19.26-25.79-4.57-20.93,8.31-41.63,24.72-53.55h0Z"/>
        </g>
        <g>
          <path class="cls-6" d="M586.22,233.61c-9.23,12.96-11.55,24.77-12.25,31.2-1.25,11.46-.35,33.2,10.04,36.96,2.99,1.08,6.07.43,8.41-.44,3.05-1.13,4.36-3.96,4.87-4.87,5.03-8.94-3.88-23.03-1.77-34.97,1.1-6.25,5.68-14.44,21.25-22.57"/>
          <path class="cls-5" d="M586.22,233.61c-6.29,11.37-10.11,23.87-9.81,36.8.19,8.16,1.27,31.46,13.49,27.96,2.13-.45,3.19-1.53,4.25-3.55,2.47-4.95.74-10.23-.11-15.66-2.32-10.83-3.05-21.31,5.64-29.74,4.95-4.9,10.93-8.12,17.08-10.5-5.4,3.77-10.68,7.78-14.41,12.81-9.23,11.29-1.36,23.62-.16,36.25.55,6.18-1.58,13-7.42,16.22-2.19,1.01-3.74,1.39-6.01,1.67-17.64.87-18.84-23-17.99-35.65.8-13.48,6.45-26.69,15.45-36.61h0Z"/>
        </g>
      </g>
      <path class="cls-10" d="M792.71,54.81c1.33-.29,13.39-2.73,19.35,4.02.99,1.13,3.65,4.14,2.92,7.71-.59,2.89-3.05,4.42-3.35,4.6-3.39,2.04-7.43.49-9.64-.36-6.3-2.42-9.61-7.74-10.91-10.16"/>
      <g>
        <path class="cls-10" d="M673.7,67.61c3.08-17.18,8.13-36.33,24.38-47.97,14.31-10.25,31.46-10.55,36.94-10.55,5.94,0,21.02-.39,34.78,8.4,9.01,5.75,18.39,15.98,24.79,37.18,16.34,54.12-17.12,78.95-10.07,150.63,1.67,16.97,6.76,36.98,16.95,76.99,5.39,21.19,8.04,29.29,14.15,38.62,12.61,19.23,22.94,18.08,35.5,36.94,4.18,6.27,17.66,26.51,13.67,51.57-3.45,21.64-17.99,34.99-24.71,41.02-20.22,18.14-47.14,25.03-67.16,23.03-7.36-.73-19.79-3.27-31.9-6.96-5.81-1.77-10.58-3.51-13.91-4.8-1.23,1.21-9.06,8.67-20.87,7.92-14.07-.9-21.24-12.67-21.83-13.67-3.77.22-9.09.29-15.35-.48-2.87-.35-42.79-5.67-64.52-37.66-6.16-9.07-12.8-23.06-13.91-45.57-4.18-84.51,78-108.76,82.12-195.72,1.51-31.98-8.23-57.64.96-108.9Z"/>
        <g>
          <path class="cls-6" d="M692.56,439.15c7.28,4.91,15.27,9.93,23.99,14.87,7.98,4.53,15.69,8.5,23.03,11.99"/>
          <path class="cls-5" d="M692.56,439.15c15.64,9.12,31.9,17.01,48.56,23.62l-3.09,6.5c-15.96-8.93-31.17-19.01-45.47-30.11,0,0,14.3,11.1,0,0Z"/>
        </g>
      </g>
      <g>
        <path class="cls-16" d="M725.53,93.66c11.88-1.27,23.77-2.54,35.65-3.8,2.3-18.68-2.91-34.08-11.88-38.03-6.02-2.65-11.88-1.43-11.88-1.43s-5.4,1.13-9.98,5.7c-6.99,6.98-7.78,21.85-1.9,37.56Z"/>
        <g>
          <ellipse class="cls-5" cx="732.02" cy="79.33" rx="8.66" ry="12.84"/>
          <ellipse class="cls-8" cx="735.82" cy="71.97" rx="3.12" ry="4.04"/>
        </g>
      </g>
      <g>
        <path class="cls-16" d="M685.8,92.26c-7.59-1.89-12.09-6.57-13.63-8.34.72-18.25,8.02-31.2,16.89-32.64,4.21-.68,7.7,1.39,8.63,2,8.29,5.36,10.42,20.58,4.75,37.73-2.12.88-8.61,3.25-16.64,1.25Z"/>
        <g>
          <ellipse class="cls-5" cx="686.66" cy="79.01" rx="8.06" ry="11.94"/>
          <ellipse class="cls-8" cx="690.16" cy="72.41" rx="3.12" ry="4.04"/>
        </g>
      </g>
      <path class="cls-5" d="M665.43,57.19c.48-18.53,24.9-29.05,38.71-16.67-4.16-.3-7.94-.27-11.55.15-11.21,1.22-20.18,7.64-27.16,16.52h0Z"/>
      <path class="cls-15" d="M814.03,455.03c8.86,8.08,68.07,61.56,93.83,61.09,2.09-.04,3.83-.43,5.27-1.58,11.15-8.95-9.99-52.88-24.45-80.13"/>
      <g>
        <path class="cls-14" d="M742.37,106.52c.1,1.39-8.31,3.91-27.1,6.18-12.61,1.52-23.11,2.12-30.43,2.38,1.01-3.74,2.64-9.06,5.23-15.21,4.47-10.64,6.71-15.96,11.41-17.59,6.2-2.15,14.19,2.01,18.07,7.13,3.29,4.34,1.56,6.77,4.75,10.46,6.3,7.27,17.94,4.96,18.07,6.66Z"/>
        <path class="cls-11" d="M729.06,110.8c-11.29-.17-16.17-3.56-18.54-6.66-2.47-3.23-2.51-6.93-6.18-9.51-3.21-2.25-7.13-2.25-9.96-1.9"/>
      </g>
      <path class="cls-5" d="M727.1,40.32c5.19-9.15,18.03-12.34,27.66-8.3,9.77,3.67,16.94,14.82,14.39,25.04-1.82-4.58-4.14-8.37-7.04-11.45-9.04-9.81-23.11-11.16-35.01-5.29h0Z"/>
      <g>
        <path class="cls-9" d="M735.94,273.65c-6.52,3.8-21.24,13.63-28.96,32.12-6.39,15.29-4.84,29.01-3.95,36.07,5.55,44.19,48.17,91.1,100.83,118.21,22.34,11.5,67.96,34.98,86.62,18.17,22.67-20.43-8.67-87.57-16.57-103.68-.55-1.12-1.02-2.08-1.33-2.69-17.74-35.19-40.41-56.67-49.23-64.5-9.33-8.28-22.89-18.81-41.07-28.43"/>
        <path class="cls-5" d="M735.94,273.65c-34.17,22.14-38.64,58.34-22.45,93.62,7.41,16.03,18.15,30.48,30.48,43.13,20.56,21.49,45.66,37.97,72.42,50.75,16.88,7.99,64.78,31.99,75.19,7.48,8.53-22.23-7.75-62.02-16.77-83.43-18.65-44.2-50.7-82.22-92.53-106.29,35.74,16.74,65.87,45.17,86.44,78.91,15.47,26.11,43.49,85.06,31.39,114.44-7.41,18.27-28.57,18.5-44.92,14.29-15.06-3.65-29.33-10.25-42.96-17-47.55-22.8-97.35-64.17-110.08-117.5-7.55-32.43,3.86-62.54,33.79-78.4h0Z"/>
      </g>
      <path class="cls-5" d="M726.98,368.95c16.09,10.59,35.09,17.32,54.43,15.64,12.06-1.02,24.59-5.46,32.52-14.74,12.22-15.14,8.77-36.91,2.56-54.07,11.03,16.82,15.84,41.12,2.75,58.36-8.99,11.34-23.37,16.57-37.38,17.25-20.4,1-40.88-7.79-54.88-22.43h0Z"/>
      <path class="cls-5" d="M762.26,411.07c19.83,11.84,39.42,23.67,60.04,33.8,11.41,5.15,30.89,15.3,42.93,10.35,10.02-3.9,6.88-22.04,5.63-30.65-3.66-21.39-11.32-41.68-21.46-61.15,13.85,18.52,23.83,40.5,28.21,63.46,1.51,9.66,3.35,20.81-2.7,29.55-11.08,13.16-30.05,5.72-42.86.27-25.38-11.73-48.4-27.86-69.78-45.63h0Z"/>
      <g>
        <path class="cls-8" d="M904.96,516.38c-8.42-9.3-16.85-18.6-25.27-27.91"/>
        <polygon class="cls-5" points="902.29 518.8 879.68 488.48 907.62 513.97 902.29 518.8 902.29 518.8"/>
      </g>
      <g>
        <path class="cls-8" d="M914.27,514.15c-8.42-9.3-16.85-18.6-25.27-27.91"/>
        <polygon class="cls-5" points="911.6 516.56 889 486.24 916.94 511.73 911.6 516.56 911.6 516.56"/>
      </g>
      <g>
        <path class="cls-8" d="M915.32,505.2c-5.83-6.43-11.65-12.87-17.48-19.3"/>
        <polygon class="cls-5" points="912.66 507.61 897.85 485.9 917.99 502.78 912.66 507.61 912.66 507.61"/>
      </g>
      <path class="cls-13" d="M788.51,521.66c-8.39-3.19-15.25-3.2-19.19-2.88-3.39.28-15.77,1.29-17.27,7.2-.57,2.24.45,5.09,2.4,6.72,3.19,2.67,8.06,1.38,24.47-3.84,4.2-1.34,9.21-2.94,14.87-4.8"/>
      <path class="cls-5" d="M702.96,431.2c-46.01-11.17-76.15-58.51-68.16-104.96,1.08-6.39,2.73-12.67,5.29-18.56-4.21,26.3-.72,53.44,12.45,76.57,11.48,20.49,29.4,36.21,50.42,46.94h0Z"/>
      <path class="cls-5" d="M658.07,228.26c-4.39,18.51-10.93,47.82,17.9,45.26,21.08-2.16,39.74-13.66,57.56-24.58-16.52,15.03-42.3,31.92-65.76,29.02-24.59-3.88-17.21-33.89-9.7-49.7h0Z"/>
    </g>
    <path class="cls-5" d="M451.92,265.59c-7.19,4.38-12.68,10-14.85,18.14-.75,2.59-1.21,5.37-1.59,8.49-8.22-11.52,2.36-29,16.44-26.64h0Z"/>
    <path class="cls-5" d="M545.72,332.75c16.88,7.49,21.23,31.83,9.07,45.34,3.65-17.34,1.57-30.94-9.07-45.34h0Z"/>
  </g>
</svg>