<svg width="18" height="22" viewBox="0 0 18 22" fill="none" xmlns="http://www.w3.org/2000/svg">
<path d="M16.499 7.85834L16.1447 18.5833C16.1145 19.5018 15.7275 20.3724 15.066 21.0103C14.4044 21.6482 13.5203 22.0032 12.6013 22H5.86886C4.95043 22.0033 4.06683 21.6488 3.40536 21.0116C2.74389 20.3744 2.35656 19.5047 2.32547 18.5868L1.97114 7.85834C1.96338 7.6234 2.04928 7.395 2.20992 7.22339C2.37057 7.05178 2.59281 6.95102 2.82775 6.94326C3.06269 6.93551 3.29109 7.02141 3.4627 7.18205C3.63431 7.3427 3.73507 7.56494 3.74283 7.79988L4.09716 18.5275C4.11481 18.9854 4.30923 19.4187 4.63959 19.7364C4.96996 20.054 5.41056 20.2313 5.86886 20.2309H12.6013C13.0602 20.2313 13.5013 20.0535 13.8317 19.7351C14.1622 19.4167 14.3562 18.9825 14.373 18.5239L14.7273 7.79988C14.7351 7.56494 14.8358 7.3427 15.0074 7.18205C15.179 7.02141 15.4074 6.93551 15.6424 6.94326C15.8773 6.95102 16.0996 7.05178 16.2602 7.22339C16.4209 7.395 16.5068 7.6234 16.499 7.85834ZM17.671 4.28927C17.671 4.52421 17.5776 4.74953 17.4115 4.91566C17.2454 5.08179 17.0201 5.17512 16.7851 5.17512H1.68589C1.45095 5.17512 1.22563 5.08179 1.05951 4.91566C0.893378 4.74953 0.800049 4.52421 0.800049 4.28927C0.800049 4.05433 0.893378 3.82901 1.05951 3.66288C1.22563 3.49676 1.45095 3.40343 1.68589 3.40343H4.43201C4.71269 3.40418 4.98361 3.30048 5.19205 3.11251C5.40049 2.92454 5.53154 2.66574 5.5597 2.38648C5.62507 1.73138 5.93198 1.12409 6.42064 0.682914C6.90931 0.241742 7.54471 -0.00170376 8.20306 8.97617e-06H10.2671C10.9254 -0.00170376 11.5608 0.241742 12.0495 0.682914C12.5382 1.12409 12.8451 1.73138 12.9104 2.38648C12.9386 2.66574 13.0696 2.92454 13.2781 3.11251C13.4865 3.30048 13.7574 3.40418 14.0381 3.40343H16.7842C17.0192 3.40343 17.2445 3.49676 17.4106 3.66288C17.5768 3.82901 17.6701 4.05433 17.6701 4.28927H17.671ZM7.09752 3.40343H11.3744C11.258 3.13744 11.1818 2.85561 11.1485 2.56719C11.1265 2.34883 11.0243 2.1464 10.8617 1.99911C10.699 1.85181 10.4874 1.77014 10.268 1.76993H8.20394C7.98449 1.77014 7.77293 1.85181 7.61025 1.99911C7.44757 2.1464 7.34536 2.34883 7.32341 2.56719C7.28978 2.85565 7.21423 3.13749 7.09752 3.40343ZM7.98957 16.8249V9.2819C7.98957 9.04696 7.89624 8.82164 7.73011 8.65551C7.56398 8.48938 7.33866 8.39605 7.10372 8.39605C6.86878 8.39605 6.64347 8.48938 6.47734 8.65551C6.31121 8.82164 6.21788 9.04696 6.21788 9.2819V16.8284C6.21788 17.0634 6.31121 17.2887 6.47734 17.4548C6.64347 17.6209 6.86878 17.7143 7.10372 17.7143C7.33866 17.7143 7.56398 17.6209 7.73011 17.4548C7.89624 17.2887 7.98957 17.0634 7.98957 16.8284V16.8249ZM12.254 16.8249V9.2819C12.254 9.04696 12.1607 8.82164 11.9946 8.65551C11.8284 8.48938 11.6031 8.39605 11.3682 8.39605C11.1332 8.39605 10.9079 8.48938 10.7418 8.65551C10.5757 8.82164 10.4823 9.04696 10.4823 9.2819V16.8284C10.4823 17.0634 10.5757 17.2887 10.7418 17.4548C10.9079 17.6209 11.1332 17.7143 11.3682 17.7143C11.6031 17.7143 11.8284 17.6209 11.9946 17.4548C12.1607 17.2887 12.254 17.0634 12.254 16.8284V16.8249Z" fill="white"/>
</svg>
