<svg width="20" height="22" viewBox="0 0 20 22" fill="none" xmlns="http://www.w3.org/2000/svg">
<path d="M5.819 12.419C5.7159 12.5213 5.63406 12.6429 5.57822 12.777C5.52237 12.911 5.49362 13.0548 5.49362 13.2C5.49362 13.3452 5.52237 13.489 5.57822 13.623C5.63406 13.7571 5.7159 13.8787 5.819 13.981L9.119 17.281C9.22126 17.3841 9.34292 17.4659 9.47696 17.5218C9.61101 17.5776 9.75479 17.6064 9.9 17.6064C10.0452 17.6064 10.189 17.5776 10.323 17.5218C10.4571 17.4659 10.5787 17.3841 10.681 17.281L13.981 13.981C14.1881 13.7739 14.3045 13.4929 14.3045 13.2C14.3045 12.9071 14.1881 12.6261 13.981 12.419C13.7739 12.2119 13.4929 12.0955 13.2 12.0955C12.9071 12.0955 12.6261 12.2119 12.419 12.419L11 13.849V1.1C11 0.808262 10.8841 0.528472 10.6778 0.322183C10.4715 0.115892 10.1917 0 9.9 0C9.60826 0 9.32847 0.115892 9.12218 0.322183C8.91589 0.528472 8.8 0.808262 8.8 1.1V13.849L7.381 12.419C7.27874 12.3159 7.15708 12.2341 7.02303 12.1782C6.88899 12.1224 6.74521 12.0936 6.6 12.0936C6.45479 12.0936 6.31101 12.1224 6.17696 12.1782C6.04292 12.2341 5.92126 12.3159 5.819 12.419ZM16.5 7.7H14.3C14.0083 7.7 13.7285 7.81589 13.5222 8.02218C13.3159 8.22847 13.2 8.50826 13.2 8.8C13.2 9.09174 13.3159 9.37153 13.5222 9.57782C13.7285 9.78411 14.0083 9.9 14.3 9.9H16.5C16.7917 9.9 17.0715 10.0159 17.2778 10.2222C17.4841 10.4285 17.6 10.7083 17.6 11V18.7C17.6 18.9917 17.4841 19.2715 17.2778 19.4778C17.0715 19.6841 16.7917 19.8 16.5 19.8H3.3C3.00826 19.8 2.72847 19.6841 2.52218 19.4778C2.31589 19.2715 2.2 18.9917 2.2 18.7V11C2.2 10.7083 2.31589 10.4285 2.52218 10.2222C2.72847 10.0159 3.00826 9.9 3.3 9.9H5.5C5.79174 9.9 6.07153 9.78411 6.27782 9.57782C6.48411 9.37153 6.6 9.09174 6.6 8.8C6.6 8.50826 6.48411 8.22847 6.27782 8.02218C6.07153 7.81589 5.79174 7.7 5.5 7.7H3.3C2.42479 7.7 1.58542 8.04768 0.966548 8.66655C0.347678 9.28542 0 10.1248 0 11V18.7C0 19.5752 0.347678 20.4146 0.966548 21.0335C1.58542 21.6523 2.42479 22 3.3 22H16.5C17.3752 22 18.2146 21.6523 18.8335 21.0335C19.4523 20.4146 19.8 19.5752 19.8 18.7V11C19.8 10.1248 19.4523 9.28542 18.8335 8.66655C18.2146 8.04768 17.3752 7.7 16.5 7.7Z" fill="#18191E"/>
</svg>
