<svg width="30" height="30" viewBox="0 0 30 30" fill="none" xmlns="http://www.w3.org/2000/svg">
<path d="M27.7296 8.38461C27.4166 7.14839 26.7802 6.01678 25.8852 5.10488C24.9903 4.19298 23.8686 3.53334 22.6345 3.19306C21.1445 2.82224 18.2577 2.6898 14.9984 5.64316C11.7523 2.70304 8.87883 2.82224 7.38886 3.19306C6.15385 3.53018 5.03056 4.18693 4.13326 5.09649C3.23596 6.00606 2.59666 7.136 2.28039 8.37137C1.87608 9.97432 1.90955 11.6557 2.37736 13.2415C2.84516 14.8272 3.73028 16.2596 4.94105 17.3904L14.0272 26.4359C14.1535 26.5642 14.3048 26.6656 14.4717 26.7339C14.6387 26.8022 14.8179 26.836 14.9984 26.8332C15.3493 26.8282 15.684 26.6854 15.9296 26.4359L25.0158 17.4036C26.2359 16.2785 27.1311 14.8487 27.6083 13.2626C28.0856 11.6766 28.1275 9.99222 27.7296 8.38461ZM23.1267 15.523L14.9984 23.6282L6.83012 15.523C5.94952 14.726 5.29984 13.7084 4.94885 12.5762C4.59786 11.4441 4.55842 10.239 4.83462 9.08653C5.02905 8.30322 5.42608 7.58421 5.98621 7.00103C6.54635 6.41784 7.25008 5.9908 8.02742 5.76235C8.345 5.68311 8.67116 5.64308 8.99856 5.64316C9.97 5.72827 10.9144 6.00656 11.7759 6.46152C12.6374 6.91649 13.3984 7.5389 14.0139 8.29191C14.1364 8.42344 14.2845 8.52883 14.4491 8.60168C14.6138 8.67453 14.7916 8.71332 14.9718 8.71571C15.1542 8.71512 15.3345 8.6772 15.5016 8.60429C15.6686 8.53139 15.8189 8.42506 15.9429 8.29191C17.965 6.17291 20.1201 5.25909 21.9959 5.72262C22.7752 5.95482 23.4787 6.38845 24.0348 6.97935C24.591 7.57025 24.98 8.29732 25.1621 9.08653C25.4335 10.2425 25.3878 11.4499 25.0297 12.5822C24.6716 13.7146 24.0143 14.7303 23.1267 15.523Z" fill="white"/>
</svg>
