<svg width="30" height="30" viewBox="0 0 30 30" fill="none" xmlns="http://www.w3.org/2000/svg">
<path d="M23.9945 15.0029C23.7294 15.0029 23.4751 15.1082 23.2876 15.2957C23.1001 15.4832 22.9948 15.7375 22.9948 16.0026V22.0009C22.9948 22.266 22.8895 22.5203 22.702 22.7078C22.5145 22.8953 22.2602 23.0006 21.9951 23.0006H7.99913C7.73399 23.0006 7.47971 22.8953 7.29223 22.7078C7.10475 22.5203 6.99942 22.266 6.99942 22.0009V8.00493C6.99942 7.73979 7.10475 7.48551 7.29223 7.29803C7.47971 7.11054 7.73399 7.00522 7.99913 7.00522H13.9974C14.2625 7.00522 14.5168 6.89989 14.7043 6.71241C14.8918 6.52493 14.9971 6.27065 14.9971 6.00551C14.9971 5.74037 14.8918 5.48609 14.7043 5.2986C14.5168 5.11112 14.2625 5.0058 13.9974 5.0058H7.99913C7.20371 5.0058 6.44087 5.32178 5.87843 5.88422C5.31598 6.44667 5 7.20951 5 8.00493V22.0009C5 22.7963 5.31598 23.5591 5.87843 24.1216C6.44087 24.684 7.20371 25 7.99913 25H21.9951C22.7905 25 23.5533 24.684 24.1158 24.1216C24.6782 23.5591 24.9942 22.7963 24.9942 22.0009V16.0026C24.9942 15.7375 24.8889 15.4832 24.7014 15.2957C24.5139 15.1082 24.2596 15.0029 23.9945 15.0029ZM8.99884 15.7627V20.0014C8.99884 20.2666 9.10417 20.5209 9.29165 20.7084C9.47913 20.8958 9.73341 21.0012 9.99855 21.0012H14.2373C14.3689 21.0019 14.4993 20.9767 14.6211 20.927C14.7429 20.8772 14.8537 20.8039 14.9471 20.7112L21.8651 13.7833L24.7043 11.0041C24.798 10.9111 24.8724 10.8006 24.9231 10.6787C24.9739 10.5569 25 10.4262 25 10.2943C25 10.1623 24.9739 10.0316 24.9231 9.9098C24.8724 9.78797 24.798 9.6774 24.7043 9.58447L20.4655 5.29571C20.3726 5.20201 20.262 5.12764 20.1402 5.07688C20.0184 5.02613 19.8877 5 19.7557 5C19.6237 5 19.4931 5.02613 19.3713 5.07688C19.2494 5.12764 19.1389 5.20201 19.0459 5.29571L16.2267 8.12489L9.28876 15.0529C9.1961 15.1463 9.1228 15.2571 9.07305 15.3789C9.0233 15.5007 8.99808 15.6311 8.99884 15.7627ZM19.7557 7.4151L22.5849 10.2443L21.1653 11.6639L18.3361 8.83469L19.7557 7.4151ZM10.9983 16.1726L16.9265 10.2443L19.7557 13.0735L13.8274 19.0017H10.9983V16.1726Z" fill="#2F3035"/>
</svg>
