<svg width="30" height="30" viewBox="0 0 30 30" fill="none" xmlns="http://www.w3.org/2000/svg">
<path d="M15 2C12.4288 2 9.91543 2.76244 7.77759 4.19089C5.63975 5.61935 3.97351 7.64967 2.98957 10.0251C2.00563 12.4006 1.74819 15.0144 2.2498 17.5362C2.7514 20.0579 3.98953 22.3743 5.80762 24.1924C7.6257 26.0105 9.94208 27.2486 12.4638 27.7502C14.9856 28.2518 17.5994 27.9944 19.9749 27.0104C22.3503 26.0265 24.3806 24.3602 25.8091 22.2224C27.2376 20.0846 28 17.5712 28 15C28 13.2928 27.6637 11.6023 27.0104 10.0251C26.3571 8.44788 25.3995 7.01477 24.1924 5.80761C22.9852 4.60045 21.5521 3.64288 19.9749 2.98957C18.3977 2.33625 16.7072 2 15 2ZM15 25.4C12.9431 25.4 10.9323 24.79 9.22207 23.6473C7.5118 22.5045 6.17881 20.8803 5.39166 18.9799C4.60451 17.0796 4.39855 14.9885 4.79984 12.9711C5.20112 10.9537 6.19163 9.10055 7.64609 7.64609C9.10056 6.19162 10.9537 5.20112 12.9711 4.79983C14.9885 4.39855 17.0796 4.6045 18.9799 5.39165C20.8803 6.1788 22.5045 7.5118 23.6473 9.22207C24.7901 10.9323 25.4 12.9431 25.4 15C25.4 17.7582 24.3043 20.4035 22.3539 22.3539C20.4035 24.3043 17.7583 25.4 15 25.4Z" fill="white"/>
<path d="M15 11.1C15.718 11.1 16.3 10.518 16.3 9.8C16.3 9.08203 15.718 8.5 15 8.5C14.282 8.5 13.7 9.08203 13.7 9.8C13.7 10.518 14.282 11.1 15 11.1Z" fill="white"/>
<path d="M15 12.4004C14.6552 12.4004 14.3246 12.5374 14.0808 12.7812C13.837 13.0249 13.7 13.3556 13.7 13.7004V20.2004C13.7 20.5452 13.837 20.8758 14.0808 21.1196C14.3246 21.3634 14.6552 21.5004 15 21.5004C15.3448 21.5004 15.6755 21.3634 15.9193 21.1196C16.163 20.8758 16.3 20.5452 16.3 20.2004V13.7004C16.3 13.3556 16.163 13.0249 15.9193 12.7812C15.6755 12.5374 15.3448 12.4004 15 12.4004Z" fill="white"/>
</svg>
