<svg width="30" height="30" viewBox="0 0 30 30" fill="none" xmlns="http://www.w3.org/2000/svg">
<path d="M5.9 15C5.9 14.6552 5.76304 14.3246 5.51924 14.0808C5.27544 13.837 4.94478 13.7 4.6 13.7H3.3C2.95522 13.7 2.62456 13.837 2.38076 14.0808C2.13696 14.3246 2 14.6552 2 15C2 15.3448 2.13696 15.6754 2.38076 15.9192C2.62456 16.163 2.95522 16.3 3.3 16.3H4.6C4.94478 16.3 5.27544 16.163 5.51924 15.9192C5.76304 15.6754 5.9 15.3448 5.9 15ZM6.732 21.5L5.809 22.423C5.56687 22.6666 5.43097 22.9961 5.43097 23.3395C5.43097 23.6829 5.56687 24.0124 5.809 24.256C6.05257 24.4981 6.38206 24.634 6.7255 24.634C7.06894 24.634 7.39843 24.4981 7.642 24.256L8.565 23.333C8.77797 23.0843 8.88926 22.7644 8.87662 22.4372C8.86399 22.1101 8.72835 21.7997 8.49683 21.5682C8.26531 21.3366 7.95495 21.201 7.62777 21.1884C7.30059 21.1757 6.98069 21.287 6.732 21.5ZM15 5.9C15.3448 5.9 15.6754 5.76304 15.9192 5.51924C16.163 5.27544 16.3 4.94478 16.3 4.6V3.3C16.3 2.95522 16.163 2.62456 15.9192 2.38076C15.6754 2.13696 15.3448 2 15 2C14.6552 2 14.3246 2.13696 14.0808 2.38076C13.837 2.62456 13.7 2.95522 13.7 3.3V4.6C13.7 4.94478 13.837 5.27544 14.0808 5.51924C14.3246 5.76304 14.6552 5.9 15 5.9ZM22.358 8.942C22.699 8.94056 23.0259 8.80517 23.268 8.565L24.191 7.642C24.3271 7.52546 24.4376 7.38205 24.5156 7.22076C24.5937 7.05948 24.6375 6.8838 24.6444 6.70477C24.6514 6.52573 24.6212 6.3472 24.5558 6.18038C24.4905 6.01356 24.3913 5.86205 24.2646 5.73535C24.138 5.60866 23.9864 5.50953 23.8196 5.44417C23.6528 5.37881 23.4743 5.34865 23.2952 5.35556C23.1162 5.36248 22.9405 5.40633 22.7792 5.48436C22.618 5.56239 22.4745 5.67291 22.358 5.809L21.5 6.732C21.2579 6.97557 21.122 7.30506 21.122 7.6485C21.122 7.99194 21.2579 8.32143 21.5 8.565C21.7292 8.79297 22.0351 8.92738 22.358 8.942ZM6.758 8.565C7.00014 8.80517 7.32696 8.94056 7.668 8.942C7.83909 8.94299 8.00869 8.9102 8.16708 8.8455C8.32547 8.78081 8.46953 8.68549 8.591 8.565C8.83313 8.32143 8.96903 7.99194 8.96903 7.6485C8.96903 7.30506 8.83313 6.97557 8.591 6.732L7.668 5.809C7.54764 5.68694 7.40442 5.58977 7.24652 5.52306C7.08861 5.45635 6.91911 5.42139 6.74769 5.42018C6.57628 5.41897 6.4063 5.45154 6.24747 5.51602C6.08864 5.58051 5.94406 5.67564 5.822 5.796C5.69994 5.91636 5.60277 6.05958 5.53606 6.21748C5.46935 6.37539 5.43439 6.54489 5.43318 6.71631C5.43074 7.0625 5.56593 7.39548 5.809 7.642L6.758 8.565ZM26.7 13.7H25.4C25.0552 13.7 24.7246 13.837 24.4808 14.0808C24.237 14.3246 24.1 14.6552 24.1 15C24.1 15.3448 24.237 15.6754 24.4808 15.9192C24.7246 16.163 25.0552 16.3 25.4 16.3H26.7C27.0448 16.3 27.3754 16.163 27.6192 15.9192C27.863 15.6754 28 15.3448 28 15C28 14.6552 27.863 14.3246 27.6192 14.0808C27.3754 13.837 27.0448 13.7 26.7 13.7ZM23.268 21.5C23.021 21.3626 22.736 21.3095 22.4561 21.3486C22.1762 21.3877 21.9167 21.517 21.7168 21.7168C21.517 21.9167 21.3877 22.1762 21.3486 22.4561C21.3095 22.736 21.3626 23.021 21.5 23.268L22.423 24.191C22.6666 24.4331 22.9961 24.569 23.3395 24.569C23.6829 24.569 24.0124 24.4331 24.256 24.191C24.4981 23.9474 24.634 23.6179 24.634 23.2745C24.634 22.9311 24.4981 22.6016 24.256 22.358L23.268 21.5ZM15 7.85C13.5859 7.85 12.2035 8.26934 11.0277 9.05499C9.85186 9.84064 8.93543 10.9573 8.39426 12.2638C7.85309 13.5703 7.7115 15.0079 7.98738 16.3949C8.26327 17.7819 8.94424 19.0559 9.94419 20.0558C10.9441 21.0558 12.2181 21.7367 13.6051 22.0126C14.9921 22.2885 16.4297 22.1469 17.7362 21.6057C19.0427 21.0646 20.1594 20.1481 20.945 18.9723C21.7307 17.7965 22.15 16.4141 22.15 15C22.1466 13.1048 21.3922 11.2881 20.052 9.94798C18.7119 8.60784 16.8952 7.85344 15 7.85ZM15 19.55C14.1001 19.55 13.2204 19.2831 12.4722 18.7832C11.7239 18.2832 11.1407 17.5726 10.7963 16.7412C10.452 15.9098 10.3619 14.995 10.5374 14.1123C10.713 13.2297 11.1463 12.419 11.7827 11.7827C12.419 11.1463 13.2297 10.713 14.1123 10.5374C14.995 10.3619 15.9098 10.452 16.7412 10.7963C17.5726 11.1407 18.2832 11.7239 18.7832 12.4722C19.2831 13.2204 19.55 14.1001 19.55 15C19.55 16.2067 19.0706 17.364 18.2173 18.2173C17.364 19.0706 16.2067 19.55 15 19.55ZM15 24.1C14.6552 24.1 14.3246 24.237 14.0808 24.4808C13.837 24.7246 13.7 25.0552 13.7 25.4V26.7C13.7 27.0448 13.837 27.3754 14.0808 27.6192C14.3246 27.863 14.6552 28 15 28C15.3448 28 15.6754 27.863 15.9192 27.6192C16.163 27.3754 16.3 27.0448 16.3 26.7V25.4C16.3 25.0552 16.163 24.7246 15.9192 24.4808C15.6754 24.237 15.3448 24.1 15 24.1Z" fill="#18191E"/>
</svg>
