<svg width="109" height="35" viewBox="0 0 109 35" fill="none" xmlns="http://www.w3.org/2000/svg">
<path d="M0.961492 20.5414C0.319742 19.843 0 19.0323 0 18.1082V3.96136C0 2.84907 0.310671 1.95674 0.933146 1.28778C1.55562 0.617684 2.35724 0.283203 3.33801 0.283203H9.56049C11.1161 0.283203 12.5028 0.615416 13.7183 1.28098C14.9337 1.94654 15.8771 2.85134 16.5472 3.99764C17.2161 5.14395 17.5518 6.41951 17.5518 7.82433C17.5041 9.83349 16.859 11.498 15.614 12.8189C14.3691 14.1398 12.691 14.9267 10.5787 15.1818C10.1444 15.2385 9.72036 15.2668 9.30538 15.2668H6.68849V18.1672C6.68849 19.1672 6.35401 19.9881 5.68391 20.6287C5.05236 21.2603 4.27909 21.5766 3.36409 21.5766C2.423 21.5743 1.62138 21.2308 0.961492 20.5414ZM6.68962 9.4083H9.3632C9.80653 9.4083 10.183 9.25296 10.4948 8.94116C10.8247 8.61121 10.9903 8.23818 10.9903 7.8232C10.9903 7.39915 10.8349 7.03065 10.5231 6.71998C10.1841 6.40931 9.79746 6.25284 9.3632 6.25284H6.68962V9.4083Z" fill="white"/>
<path d="M19.4747 20.6266C18.8148 19.9667 18.4849 19.1549 18.4849 18.1934V3.43771C18.4849 2.49436 18.8125 1.69954 19.4679 1.05439C20.1233 0.408104 20.9181 0.0849609 21.8512 0.0849609C22.4453 0.0849609 22.9987 0.233493 23.5134 0.530558C24.027 0.827622 24.433 1.2358 24.73 1.75396C25.0271 2.27326 25.1756 2.84358 25.1756 3.46605V18.2501C25.1756 18.6934 25.0928 19.1254 24.9284 19.545C24.7629 19.9645 24.5203 20.3352 24.2005 20.6561C23.5406 21.2877 22.7583 21.604 21.8523 21.604C20.8897 21.6029 20.0972 21.2775 19.4747 20.6266Z" fill="white"/>
<path d="M39.573 15.5766C40.5719 15.3883 41.2794 15.0062 41.6944 14.4303H39.9551C39.1251 14.4303 38.4255 14.1377 37.8552 13.5527C37.2849 12.9676 36.9992 12.2658 36.9992 11.4449C37.0184 10.8984 37.1545 10.4051 37.4096 9.96635C37.6647 9.52756 38.0151 9.17607 38.4629 8.91188C38.9108 8.6477 39.3983 8.51618 39.9267 8.51618H45.5415C47.6062 8.51618 48.6391 9.65341 48.6391 11.9256C48.6391 12.5855 48.5733 13.2647 48.4407 13.9631C48.308 14.8407 47.9837 15.7455 47.4644 16.6798C46.8896 17.7082 46.156 18.5926 45.2648 19.333C44.3736 20.0733 43.3509 20.6369 42.1955 21.0235C41.0401 21.4101 39.7702 21.604 38.3836 21.604C37.591 21.604 36.7146 21.5281 35.7531 21.3773C34.4333 21.1505 33.2382 20.757 32.1679 20.1958C31.0975 19.6346 30.1621 18.9112 29.3605 18.0245C28.5589 17.1378 27.9183 16.1287 27.4375 14.9972C26.8808 13.6581 26.603 12.2998 26.603 10.9222C26.603 9.11144 27.0622 7.39708 27.9818 5.7791C28.9013 4.16112 30.1995 2.82433 31.8788 1.76873C33.7076 0.628093 35.7916 0.0566406 38.1296 0.0566406C38.4312 0.0566406 38.8654 0.0759158 39.4312 0.113332C40.4403 0.19837 41.4256 0.391122 42.3871 0.693855C43.3112 0.995455 44.1786 1.3923 44.9893 1.88211C46.639 2.96719 47.4644 4.1271 47.4644 5.36185C47.4644 6.09771 47.1254 6.76214 46.4463 7.35626C45.9655 7.78032 45.385 7.99348 44.707 7.99348C44.2069 7.99348 43.674 7.87556 43.1082 7.63972H43.0799L41.8633 7.00251C41.5991 6.85171 41.3962 6.7474 41.2556 6.69184C40.0764 6.14533 38.9788 5.87094 37.9606 5.87094C37.1409 5.87094 36.405 6.03421 35.7542 6.35962C35.1034 6.68503 34.5614 7.16351 34.1283 7.79506C33.694 8.4266 33.4072 9.15793 33.2654 9.98789C33.2087 10.2521 33.1804 10.5117 33.1804 10.7657C33.1804 11.0956 33.2087 11.4165 33.2654 11.7272C33.4355 12.5662 33.7371 13.2862 34.1702 13.8849C34.6034 14.4835 35.1533 14.9461 35.8177 15.2716C36.4821 15.597 37.2339 15.7602 38.074 15.7602C38.582 15.7602 39.082 15.699 39.573 15.5766Z" fill="white"/>
<path d="M2.44483 32.7077C1.87902 32.7077 1.41584 32.5607 1.05528 32.2667C0.694724 31.9727 0.475615 31.5816 0.397956 31.0935L0.930475 30.9604C0.99704 31.3709 1.16623 31.6843 1.43803 31.9006C1.71539 32.1114 2.05653 32.2168 2.46147 32.2168C2.69999 32.2168 2.91355 32.1696 3.10215 32.0753C3.2963 31.981 3.44885 31.8479 3.55979 31.6759C3.67073 31.504 3.7262 31.3071 3.7262 31.0852C3.7262 30.8467 3.66241 30.6553 3.53483 30.5111C3.40724 30.3613 3.23806 30.2337 3.02727 30.1283C2.81648 30.0229 2.57796 29.9203 2.3117 29.8204C2.01215 29.704 1.74312 29.5791 1.5046 29.446C1.26607 29.3073 1.07747 29.1409 0.938796 28.9468C0.805666 28.7526 0.739101 28.5113 0.739101 28.2229C0.739101 27.9344 0.808439 27.682 0.947116 27.4657C1.08579 27.2438 1.27994 27.0691 1.52956 26.9415C1.78472 26.8139 2.07872 26.7501 2.41154 26.7501C2.76656 26.7501 3.07997 26.8306 3.35177 26.9914C3.62358 27.1523 3.84269 27.3881 4.0091 27.6987L3.57643 27.9649C3.4433 27.732 3.27689 27.5517 3.07719 27.4241C2.88305 27.2965 2.65562 27.2327 2.3949 27.2327C2.17302 27.2327 1.97887 27.2743 1.81246 27.3575C1.64605 27.4408 1.51569 27.5572 1.42139 27.707C1.32709 27.8512 1.27994 28.0176 1.27994 28.2062C1.27994 28.4059 1.33264 28.5751 1.43803 28.7138C1.54897 28.8525 1.70429 28.9717 1.90399 29.0716C2.10923 29.1714 2.34775 29.2713 2.61956 29.3711C2.94129 29.4932 3.22419 29.6263 3.46826 29.7705C3.71788 29.9092 3.91203 30.0812 4.0507 30.2864C4.18938 30.4916 4.25872 30.7468 4.25872 31.0519C4.25872 31.3736 4.18106 31.6593 4.02574 31.9089C3.87042 32.1585 3.65686 32.3555 3.38506 32.4997C3.11325 32.6384 2.79984 32.7077 2.44483 32.7077ZM8.23318 32.6911C7.85598 32.6911 7.5176 32.6023 7.21806 32.4248C6.92407 32.2417 6.69386 31.9921 6.52745 31.6759C6.36104 31.3542 6.27783 30.9881 6.27783 30.5776C6.27783 30.1671 6.35827 29.8038 6.51913 29.4876C6.68554 29.1714 6.91575 28.9246 7.20974 28.7471C7.50928 28.564 7.85043 28.4725 8.23318 28.4725C8.61592 28.4725 8.95152 28.564 9.23997 28.7471C9.53397 28.9246 9.76417 29.1714 9.93058 29.4876C10.1025 29.8038 10.1885 30.1671 10.1885 30.5776C10.1885 30.9881 10.1025 31.3542 9.93058 31.6759C9.76417 31.9921 9.53397 32.2417 9.23997 32.4248C8.94598 32.6023 8.61038 32.6911 8.23318 32.6911ZM8.23318 32.2251C8.52162 32.2251 8.77124 32.1558 8.98203 32.0171C9.19837 31.8784 9.36478 31.687 9.48127 31.443C9.59776 31.1933 9.656 30.9049 9.656 30.5776C9.656 30.2448 9.59776 29.9563 9.48127 29.7123C9.36478 29.4627 9.19837 29.2713 8.98203 29.1382C8.77124 28.9995 8.52162 28.9301 8.23318 28.9301C7.94473 28.9301 7.69234 28.9995 7.476 29.1382C7.25966 29.2768 7.09048 29.4682 6.96844 29.7123C6.85195 29.9563 6.79371 30.2448 6.79371 30.5776C6.79371 30.9049 6.85195 31.1933 6.96844 31.443C7.09048 31.687 7.25966 31.8784 7.476 32.0171C7.69234 32.1558 7.94473 32.2251 8.23318 32.2251ZM12.4443 32.6328V28.5308H12.9768V29.4876L12.852 29.5292C12.9241 29.3018 13.0267 29.1104 13.1598 28.9551C13.293 28.7998 13.451 28.6805 13.6341 28.5973C13.8227 28.5141 14.0307 28.4725 14.2581 28.4725C14.7019 28.4725 15.0486 28.6056 15.2982 28.8719C15.5478 29.1326 15.6726 29.532 15.6726 30.0701V32.6328H15.1484V30.2614C15.1484 29.8066 15.0625 29.471 14.8905 29.2546C14.7241 29.0383 14.4717 28.9301 14.1333 28.9301C13.9004 28.9301 13.6951 28.9884 13.5176 29.1049C13.3457 29.2158 13.2125 29.3961 13.1182 29.6457C13.0239 29.8898 12.9768 30.2087 12.9768 30.6026V32.6328H12.4443ZM21.4711 32.6328V26.8333H23.0353C23.9728 26.8333 24.6995 27.0913 25.2153 27.6072C25.7368 28.1175 25.9975 28.8414 25.9975 29.7788C25.9975 30.6997 25.7395 31.4069 25.2237 31.9006C24.7133 32.3887 23.9811 32.6328 23.027 32.6328H21.4711ZM22.0119 32.1336H22.9771C23.5041 32.1336 23.9506 32.0504 24.3167 31.884C24.6828 31.7175 24.9602 31.4596 25.1488 31.1101C25.3429 30.7607 25.44 30.3114 25.44 29.7622C25.44 29.213 25.3429 28.7582 25.1488 28.3976C24.9602 28.0371 24.6856 27.7708 24.325 27.5988C23.9645 27.4213 23.5318 27.3326 23.027 27.3326H22.0119V32.1336ZM30.9381 32.6328L30.9048 31.7009V30.0784C30.9048 29.7012 30.8078 29.4155 30.6136 29.2214C30.4195 29.0272 30.1338 28.9301 29.7566 28.9301C29.5125 28.9301 29.2879 28.9801 29.0826 29.0799C28.8774 29.1742 28.6832 29.3379 28.5002 29.5708L28.1174 29.2463C28.3393 28.9801 28.5861 28.7859 28.858 28.6639C29.1353 28.5363 29.4459 28.4725 29.7899 28.4725C30.3113 28.4725 30.7135 28.6112 30.9964 28.8885C31.2793 29.1603 31.4207 29.557 31.4207 30.0784V32.6328H30.9381ZM29.4903 32.6911C29.1852 32.6911 28.919 32.6384 28.6915 32.533C28.4697 32.4276 28.2977 32.2833 28.1757 32.1003C28.0592 31.9117 28.0009 31.6926 28.0009 31.443C28.0009 31.2211 28.0425 31.0353 28.1257 30.8855C28.2145 30.7302 28.3282 30.6081 28.4669 30.5194C28.6167 30.4195 28.7858 30.3502 28.9744 30.3114C29.1686 30.2725 29.3766 30.2531 29.5985 30.2531H30.9548V30.6525H29.6651C29.5042 30.6525 29.3461 30.6664 29.1908 30.6941C29.041 30.7218 28.9134 30.7773 28.808 30.8605C28.7193 30.9215 28.6499 31.002 28.6 31.1018C28.5556 31.1961 28.5335 31.3098 28.5335 31.443C28.5335 31.6926 28.6222 31.8923 28.7997 32.042C28.9828 32.1863 29.2296 32.2584 29.5402 32.2584C29.7899 32.2584 30.0173 32.2001 30.2225 32.0837C30.4278 31.9616 30.5914 31.7952 30.7135 31.5844C30.841 31.3736 30.9048 31.1379 30.9048 30.8772L31.1295 31.1268C31.1017 31.4374 31.013 31.712 30.8632 31.9505C30.7135 32.189 30.5193 32.3721 30.2808 32.4997C30.0423 32.6273 29.7788 32.6911 29.4903 32.6911ZM36.6386 32.6328L35.1742 30.3946L34.2756 31.3348V30.6608L36.3391 28.5308H37.0214L35.557 30.0368L37.2627 32.6328H36.6386ZM33.8263 32.6328V26.8333H34.3588V32.6328H33.8263ZM39.2977 32.6328V28.5308H39.8219V32.6328H39.2977ZM39.2478 27.732V26.8333H39.8718V27.732H39.2478ZM45.0789 32.6328L43.6144 30.3946L42.7158 31.3348V30.6608L44.7793 28.5308H45.4616L43.9972 30.0368L45.7029 32.6328H45.0789ZM42.2665 32.6328V26.8333H42.799V32.6328H42.2665ZM50.4106 32.6328L50.3773 31.7009V30.0784C50.3773 29.7012 50.2803 29.4155 50.0861 29.2214C49.892 29.0272 49.6063 28.9301 49.2291 28.9301C48.985 28.9301 48.7604 28.9801 48.5551 29.0799C48.3499 29.1742 48.1557 29.3379 47.9727 29.5708L47.5899 29.2463C47.8118 28.9801 48.0587 28.7859 48.3305 28.6639C48.6078 28.5363 48.9185 28.4725 49.2624 28.4725C49.7838 28.4725 50.186 28.6112 50.4689 28.8885C50.7518 29.1603 50.8932 29.557 50.8932 30.0784V32.6328H50.4106ZM48.9628 32.6911C48.6577 32.6911 48.3915 32.6384 48.164 32.533C47.9422 32.4276 47.7702 32.2833 47.6482 32.1003C47.5317 31.9117 47.4734 31.6926 47.4734 31.443C47.4734 31.2211 47.515 31.0353 47.5982 30.8855C47.687 30.7302 47.8007 30.6081 47.9394 30.5194C48.0892 30.4195 48.2583 30.3502 48.4469 30.3114C48.6411 30.2725 48.8491 30.2531 49.071 30.2531H50.4273V30.6525H49.1376C48.9767 30.6525 48.8186 30.6664 48.6633 30.6941C48.5135 30.7218 48.3859 30.7773 48.2805 30.8605C48.1918 30.9215 48.1224 31.002 48.0725 31.1018C48.0281 31.1961 48.006 31.3098 48.006 31.443C48.006 31.6926 48.0947 31.8923 48.2722 32.042C48.4553 32.1863 48.7021 32.2584 49.0128 32.2584C49.2624 32.2584 49.4898 32.2001 49.695 32.0837C49.9003 31.9616 50.0639 31.7952 50.186 31.5844C50.3135 31.3736 50.3773 31.1379 50.3773 30.8772L50.602 31.1268C50.5743 31.4374 50.4855 31.712 50.3357 31.9505C50.186 32.189 49.9918 32.3721 49.7533 32.4997C49.5148 32.6273 49.2513 32.6911 48.9628 32.6911ZM59.0547 32.716C58.5333 32.716 58.0756 32.594 57.6818 32.3499C57.2935 32.1003 56.9912 31.7508 56.7748 31.3015C56.5585 30.8522 56.4503 30.328 56.4503 29.7289C56.4503 29.1298 56.5585 28.6084 56.7748 28.1646C56.9967 27.7153 57.3046 27.3686 57.6984 27.1246C58.0978 26.8749 58.5582 26.7501 59.0796 26.7501C59.6455 26.7501 60.1364 26.8916 60.5524 27.1745C60.9684 27.4518 61.268 27.8374 61.451 28.3311L60.9435 28.5224C60.7937 28.1341 60.5607 27.829 60.2445 27.6072C59.9284 27.3853 59.5401 27.2743 59.0796 27.2743C58.6581 27.2743 58.2892 27.3742 57.973 27.5739C57.6624 27.7736 57.4211 28.0565 57.2491 28.4226C57.0772 28.7887 56.9912 29.2241 56.9912 29.7289C56.9912 30.2337 57.0772 30.6719 57.2491 31.0436C57.4211 31.4097 57.6624 31.6926 57.973 31.8923C58.2892 32.092 58.6581 32.1918 59.0796 32.1918C59.296 32.1918 59.5123 32.1641 59.7287 32.1086C59.9505 32.0476 60.1558 31.945 60.3444 31.8008C60.533 31.6565 60.6828 31.4596 60.7937 31.21C60.9102 30.9548 60.9684 30.6331 60.9684 30.2448V29.7705L61.0932 30.1366H59.479V29.6457H61.451V32.6328H60.9684L60.8935 31.4014L60.9851 31.4596C60.8908 31.7591 60.7438 32.0004 60.5441 32.1835C60.3444 32.3666 60.1142 32.5025 59.8535 32.5912C59.5928 32.6744 59.3265 32.716 59.0547 32.716ZM65.4839 32.6911C65.1788 32.6911 64.907 32.6384 64.6684 32.533C64.4355 32.4276 64.2413 32.2806 64.086 32.092C63.9307 31.9034 63.8114 31.6815 63.7282 31.4263C63.6505 31.1712 63.6117 30.8994 63.6117 30.6109C63.6117 30.3169 63.6505 30.0423 63.7282 29.7872C63.8059 29.5265 63.9196 29.299 64.0694 29.1049C64.2247 28.9052 64.4133 28.7499 64.6352 28.6389C64.8626 28.528 65.1233 28.4725 65.4173 28.4725C65.7279 28.4725 65.9942 28.528 66.2161 28.6389C66.4435 28.7443 66.6266 28.8913 66.7652 29.0799C66.9095 29.263 67.0148 29.4654 67.0814 29.6873C67.1535 29.9092 67.1896 30.1339 67.1896 30.3613C67.1896 30.4057 67.1868 30.4639 67.1813 30.536C67.1813 30.6081 67.1757 30.6691 67.1646 30.7191H64.1276C64.1387 31.1906 64.2635 31.5567 64.502 31.8174C64.7461 32.0781 65.0734 32.2085 65.4839 32.2085C65.7446 32.2085 65.9664 32.1696 66.1495 32.092C66.3381 32.0088 66.5184 31.8729 66.6903 31.6843L67.0648 32.0171C66.9095 32.178 66.7514 32.3083 66.5905 32.4082C66.4296 32.5025 66.2577 32.5746 66.0746 32.6245C65.8971 32.6689 65.7002 32.6911 65.4839 32.6911ZM66.6654 30.4528C66.6765 30.4084 66.682 30.3641 66.682 30.3197C66.682 30.2698 66.682 30.2226 66.682 30.1782C66.682 30.034 66.6571 29.887 66.6071 29.7372C66.5628 29.5875 66.4906 29.4516 66.3908 29.3295C66.291 29.2075 66.1606 29.1076 65.9997 29.03C65.8389 28.9523 65.6475 28.9135 65.4256 28.9135C65.1704 28.9135 64.9458 28.9773 64.7516 29.1049C64.563 29.2325 64.416 29.4016 64.3106 29.6124C64.2053 29.8232 64.1442 30.0617 64.1276 30.328H66.8401L66.6654 30.4528ZM70.2022 32.6911C69.9692 32.6911 69.7834 32.6189 69.6447 32.4747C69.506 32.3249 69.4367 32.0892 69.4367 31.7675V26.8333H69.9609V31.6759C69.9609 31.8645 69.9969 32.0004 70.069 32.0837C70.1412 32.1669 70.2382 32.2085 70.3603 32.2085C70.4157 32.2085 70.4767 32.2029 70.5433 32.1918C70.6099 32.1752 70.6792 32.1558 70.7513 32.1336V32.5829C70.657 32.6162 70.56 32.6411 70.4601 32.6578C70.3658 32.68 70.2798 32.6911 70.2022 32.6911ZM72.755 32.6328V28.5308H73.2792V32.6328H72.755ZM72.7051 27.732V26.8333H73.3292V27.732H72.7051ZM77.0385 32.6911C76.7667 32.6911 76.5198 32.6495 76.2979 32.5662C76.0816 32.483 75.893 32.3721 75.7321 32.2334C75.5768 32.0892 75.4548 31.9311 75.366 31.7591L75.7404 31.4596C75.8458 31.6926 76.0095 31.884 76.2314 32.0337C76.4588 32.178 76.7278 32.2501 77.0385 32.2501C77.3325 32.2501 77.5682 32.1863 77.7457 32.0587C77.9232 31.9256 78.012 31.7453 78.012 31.5179C78.012 31.3293 77.9565 31.185 77.8456 31.0852C77.7402 30.9798 77.6015 30.8966 77.4295 30.8356C77.2631 30.7745 77.0801 30.7218 76.8804 30.6775C76.725 30.6386 76.5697 30.5943 76.4144 30.5443C76.2591 30.4889 76.1176 30.4223 75.9901 30.3446C75.868 30.2614 75.771 30.156 75.6988 30.0285C75.6267 29.9009 75.5907 29.7428 75.5907 29.5542C75.5907 29.2325 75.7155 28.9717 75.9651 28.772C76.2203 28.5724 76.5503 28.4725 76.9553 28.4725C77.2603 28.4725 77.5377 28.5391 77.7873 28.6722C78.0425 28.7998 78.2394 28.9967 78.3781 29.263L78.0369 29.5126C77.9204 29.2962 77.7651 29.1409 77.571 29.0466C77.3824 28.9468 77.1716 28.8969 76.9386 28.8969C76.689 28.8969 76.481 28.9523 76.3146 29.0633C76.1537 29.1742 76.0733 29.324 76.0733 29.5126C76.0733 29.6513 76.1121 29.765 76.1898 29.8537C76.2674 29.9369 76.3784 30.0063 76.5226 30.0617C76.6668 30.1172 76.836 30.1671 77.0301 30.2115C77.2076 30.2503 77.3824 30.2975 77.5543 30.353C77.7318 30.4084 77.8927 30.4805 78.0369 30.5693C78.1867 30.6525 78.3032 30.7662 78.3864 30.9104C78.4752 31.0547 78.5195 31.2377 78.5195 31.4596C78.5195 31.7092 78.4585 31.9283 78.3365 32.1169C78.2144 32.3 78.0425 32.4414 77.8206 32.5413C77.5987 32.6411 77.338 32.6911 77.0385 32.6911ZM76.8221 34.3302C76.7278 34.3302 76.6307 34.3163 76.5309 34.2886C76.4311 34.2664 76.3395 34.2304 76.2563 34.1804C76.1731 34.1305 76.1038 34.0723 76.0483 34.0057L76.2397 33.7977C76.3062 33.8754 76.3922 33.9364 76.4976 33.9808C76.603 34.0251 76.7084 34.0473 76.8138 34.0473C76.958 34.0473 77.0773 34.0168 77.1716 33.9558C77.2659 33.9003 77.313 33.8116 77.313 33.6895C77.313 33.5952 77.2798 33.5203 77.2132 33.4649C77.1522 33.4149 77.0717 33.3761 76.9719 33.3484C76.872 33.3262 76.7667 33.3096 76.6557 33.2985C76.5448 33.2874 76.4421 33.279 76.3478 33.2735L76.8471 32.5829H77.1882L76.8055 33.0655C77.0385 33.0988 77.2354 33.1598 77.3962 33.2485C77.5571 33.3373 77.6375 33.4787 77.6375 33.6729C77.6375 33.8837 77.5599 34.0445 77.4046 34.1555C77.2492 34.272 77.0551 34.3302 76.8221 34.3302ZM80.7727 32.6328V28.5308H81.3052V29.5875H81.1971C81.247 29.3933 81.3136 29.2269 81.3968 29.0882C81.48 28.9496 81.5798 28.8358 81.6963 28.7471C81.8128 28.6528 81.9376 28.5834 82.0707 28.5391C82.2094 28.4947 82.3536 28.4725 82.5034 28.4725C82.7475 28.4725 82.961 28.5197 83.1441 28.614C83.3327 28.7027 83.4852 28.8414 83.6017 29.03C83.7182 29.2186 83.7987 29.4599 83.843 29.7539L83.5518 29.7705C83.6295 29.4876 83.7293 29.2519 83.8513 29.0633C83.9789 28.8691 84.137 28.7221 84.3256 28.6223C84.5142 28.5224 84.7361 28.4725 84.9913 28.4725C85.3241 28.4725 85.5904 28.5502 85.79 28.7055C85.9897 28.8553 86.134 29.0577 86.2227 29.3129C86.3115 29.5681 86.3559 29.8593 86.3559 30.1866V32.6328H85.8317V30.303C85.8317 30.0201 85.8011 29.7761 85.7401 29.5708C85.6791 29.3656 85.5793 29.2075 85.4406 29.0966C85.3019 28.9856 85.1133 28.9301 84.8748 28.9301C84.6695 28.9301 84.4865 28.9856 84.3256 29.0966C84.1703 29.2019 84.0483 29.3656 83.9595 29.5875C83.8763 29.8094 83.8347 30.0867 83.8347 30.4195V32.6328H83.3022V30.2282C83.3022 29.7899 83.2218 29.4654 83.0609 29.2546C82.9056 29.0383 82.6726 28.9301 82.362 28.9301C82.1567 28.9301 81.9737 28.9856 81.8128 29.0966C81.6519 29.2075 81.5271 29.3767 81.4384 29.6041C81.3496 29.8315 81.3052 30.12 81.3052 30.4695V32.6328H80.7727ZM90.4116 32.6911C90.1065 32.6911 89.8347 32.6384 89.5961 32.533C89.3632 32.4276 89.169 32.2806 89.0137 32.092C88.8584 31.9034 88.7391 31.6815 88.6559 31.4263C88.5783 31.1712 88.5394 30.8994 88.5394 30.6109C88.5394 30.3169 88.5783 30.0423 88.6559 29.7872C88.7336 29.5265 88.8473 29.299 88.9971 29.1049C89.1524 28.9052 89.341 28.7499 89.5629 28.6389C89.7903 28.528 90.051 28.4725 90.345 28.4725C90.6556 28.4725 90.9219 28.528 91.1438 28.6389C91.3712 28.7443 91.5543 28.8913 91.6929 29.0799C91.8372 29.263 91.9426 29.4654 92.0091 29.6873C92.0812 29.9092 92.1173 30.1339 92.1173 30.3613C92.1173 30.4057 92.1145 30.4639 92.109 30.536C92.109 30.6081 92.1034 30.6691 92.0923 30.7191H89.0553C89.0664 31.1906 89.1912 31.5567 89.4297 31.8174C89.6738 32.0781 90.0011 32.2085 90.4116 32.2085C90.6723 32.2085 90.8942 32.1696 91.0772 32.092C91.2658 32.0088 91.4461 31.8729 91.618 31.6843L91.9925 32.0171C91.8372 32.178 91.6791 32.3083 91.5182 32.4082C91.3573 32.5025 91.1854 32.5746 91.0023 32.6245C90.8248 32.6689 90.6279 32.6911 90.4116 32.6911ZM91.5931 30.4528C91.6042 30.4084 91.6097 30.3641 91.6097 30.3197C91.6097 30.2698 91.6097 30.2226 91.6097 30.1782C91.6097 30.034 91.5848 29.887 91.5348 29.7372C91.4905 29.5875 91.4184 29.4516 91.3185 29.3295C91.2187 29.2075 91.0883 29.1076 90.9274 29.03C90.7666 28.9523 90.5752 28.9135 90.3533 28.9135C90.0981 28.9135 89.8735 28.9773 89.6793 29.1049C89.4907 29.2325 89.3437 29.4016 89.2384 29.6124C89.133 29.8232 89.0719 30.0617 89.0553 30.328H91.7678L91.5931 30.4528ZM95.1299 32.6911C94.8969 32.6911 94.7111 32.6189 94.5724 32.4747C94.4337 32.3249 94.3644 32.0892 94.3644 31.7675V26.8333H94.8886V31.6759C94.8886 31.8645 94.9246 32.0004 94.9967 32.0837C95.0689 32.1669 95.1659 32.2085 95.288 32.2085C95.3434 32.2085 95.4045 32.2029 95.471 32.1918C95.5376 32.1752 95.6069 32.1558 95.679 32.1336V32.5829C95.5847 32.6162 95.4877 32.6411 95.3878 32.6578C95.2935 32.68 95.2075 32.6911 95.1299 32.6911ZM99.3718 32.6911C99.0667 32.6911 98.7949 32.6384 98.5564 32.533C98.3234 32.4276 98.1293 32.2806 97.974 32.092C97.8186 31.9034 97.6994 31.6815 97.6162 31.4263C97.5385 31.1712 97.4997 30.8994 97.4997 30.6109C97.4997 30.3169 97.5385 30.0423 97.6162 29.7872C97.6938 29.5265 97.8075 29.299 97.9573 29.1049C98.1126 28.9052 98.3012 28.7499 98.5231 28.6389C98.7506 28.528 99.0113 28.4725 99.3053 28.4725C99.6159 28.4725 99.8822 28.528 100.104 28.6389C100.331 28.7443 100.515 28.8913 100.653 29.0799C100.797 29.263 100.903 29.4654 100.969 29.6873C101.041 29.9092 101.078 30.1339 101.078 30.3613C101.078 30.4057 101.075 30.4639 101.069 30.536C101.069 30.6081 101.064 30.6691 101.053 30.7191H98.0156C98.0267 31.1906 98.1515 31.5567 98.39 31.8174C98.6341 32.0781 98.9613 32.2085 99.3718 32.2085C99.6325 32.2085 99.8544 32.1696 100.037 32.092C100.226 32.0088 100.406 31.8729 100.578 31.6843L100.953 32.0171C100.797 32.178 100.639 32.3083 100.478 32.4082C100.318 32.5025 100.146 32.5746 99.9626 32.6245C99.7851 32.6689 99.5882 32.6911 99.3718 32.6911ZM100.553 30.4528C100.564 30.4084 100.57 30.3641 100.57 30.3197C100.57 30.2698 100.57 30.2226 100.57 30.1782C100.57 30.034 100.545 29.887 100.495 29.7372C100.451 29.5875 100.379 29.4516 100.279 29.3295C100.179 29.2075 100.049 29.1076 99.8877 29.03C99.7268 28.9523 99.5355 28.9135 99.3136 28.9135C99.0584 28.9135 98.8338 28.9773 98.6396 29.1049C98.451 29.2325 98.304 29.4016 98.1986 29.6124C98.0932 29.8232 98.0322 30.0617 98.0156 30.328H100.728L100.553 30.4528ZM103.333 32.6328V28.5308H103.865V29.6208L103.732 29.6457C103.777 29.3905 103.874 29.177 104.024 29.005C104.173 28.8331 104.348 28.7027 104.548 28.614C104.747 28.5197 104.939 28.4725 105.122 28.4725C105.233 28.4725 105.344 28.4864 105.455 28.5141C105.571 28.5363 105.682 28.5751 105.788 28.6306L105.53 29.1049C105.457 29.0716 105.377 29.0439 105.288 29.0217C105.2 28.9995 105.114 28.9884 105.03 28.9884C104.886 28.9884 104.742 29.0161 104.598 29.0716C104.453 29.1271 104.32 29.2158 104.198 29.3379C104.082 29.4543 103.996 29.6124 103.94 29.8121C103.918 29.8953 103.899 29.998 103.882 30.12C103.871 30.242 103.865 30.4112 103.865 30.6275V32.6328H103.333ZM107.805 32.6328V28.5308H108.329V32.6328H107.805ZM107.755 27.732V26.8333H108.379V27.732H107.755Z" fill="white"/>
<path d="M50.3207 19.1695C50.1416 18.7545 50.052 18.3304 50.052 17.8962V3.6779C50.052 3.04636 50.1983 2.47037 50.4908 1.95221C50.7833 1.43404 51.1836 1.02586 51.6927 0.7288C52.2018 0.431735 52.7766 0.283203 53.4184 0.283203H61.3813C61.862 0.283203 62.3212 0.41246 62.76 0.672108C63.1988 0.931756 63.5469 1.28324 63.8065 1.72657C64.0662 2.1699 64.1954 2.66539 64.1954 3.2119C64.1954 3.74933 64.0662 4.24482 63.8065 4.69722C63.5469 5.14962 63.1988 5.50904 62.76 5.77209C62.3212 6.03628 61.8427 6.1678 61.3246 6.1678H56.7428V7.93658H60.5184C60.9232 7.93658 61.3246 8.01935 61.7203 8.18376C62.116 8.3493 62.4561 8.57266 62.7385 8.85612C63.0219 9.10103 63.2385 9.39583 63.3893 9.74051C63.5401 10.0852 63.6161 10.4412 63.6161 10.8086C63.6161 11.5819 63.3145 12.2565 62.7113 12.8313C62.0604 13.3881 61.3393 13.6658 60.5479 13.6658H56.7439V15.4913H61.1001C61.9675 15.4913 62.7169 15.7929 63.3485 16.3973C63.6501 16.6524 63.8768 16.9608 64.0276 17.3236C64.1784 17.6864 64.2544 18.0617 64.2544 18.4484C64.2544 19.25 63.9619 19.9291 63.378 20.4859C62.7271 21.0607 61.9969 21.3487 61.1863 21.3487H53.3934C52.7709 21.3487 52.1791 21.1526 51.619 20.7614C51.0543 20.3702 50.6235 19.8396 50.3207 19.1695Z" fill="white"/>
<path d="M67.1093 16.8352C66.6853 16.232 66.3293 15.5925 66.0413 14.9179C65.7533 14.2432 65.5367 13.5641 65.3905 12.8804C65.2442 12.1967 65.1716 11.5061 65.1716 10.8077C65.1716 10.1285 65.2442 9.44484 65.3905 8.7566C65.5367 8.06836 65.7556 7.38239 66.0481 6.69869C66.3406 6.01499 66.6944 5.37551 67.1093 4.78138C67.7885 3.79154 68.6083 2.93776 69.5698 2.22118C70.5313 1.5046 71.5857 0.954688 72.7309 0.572586C73.8761 0.190484 75.053 0 76.2594 0C77.1642 0 78.0577 0.108848 78.9398 0.32541C79.8208 0.541973 80.6655 0.86058 81.4716 1.2801C82.2778 1.69962 83.0136 2.20191 83.6781 2.78696C84.3425 3.37202 84.9253 4.03645 85.4242 4.78138C86.7156 6.6488 87.3619 8.65796 87.3619 10.8077C87.3619 11.8735 87.1964 12.9178 86.8664 13.9416C86.5365 14.9655 86.0557 15.9292 85.4242 16.8352C84.9242 17.562 84.33 18.2286 83.6418 18.8375C82.9535 19.4464 82.2302 19.9487 81.4705 20.3444C80.712 20.7401 79.8797 21.0542 78.9738 21.2855C78.069 21.5168 77.1631 21.6324 76.2583 21.6324C75.0507 21.6324 73.8749 21.4442 72.7298 21.0666C71.5846 20.6891 70.5279 20.138 69.5618 19.4112C68.5958 18.6845 67.7783 17.8261 67.1093 16.8352ZM71.8046 10.8088C71.8046 11.7431 72.0052 12.5912 72.4055 13.3554C72.8057 14.1196 73.3432 14.7115 74.0178 15.131C74.6913 15.5505 75.4294 15.7603 76.231 15.7603C76.5145 15.7603 76.8059 15.7319 77.1075 15.6753C77.6449 15.5619 78.1302 15.3635 78.5645 15.0811C78.9976 14.7977 79.382 14.4394 79.7176 14.0063C80.0521 13.572 80.3094 13.089 80.4886 12.5561C80.6677 12.0232 80.7573 11.4506 80.7573 10.8372C80.7573 10.5447 80.729 10.234 80.6723 9.90291C80.5305 9.08201 80.255 8.3745 79.8446 7.78037C79.4341 7.18624 78.9182 6.7191 78.2958 6.38008C77.6733 6.04107 76.9941 5.87099 76.2594 5.87099C75.4385 5.87099 74.689 6.08075 74.011 6.50027C73.3318 6.91979 72.7944 7.51165 72.3987 8.27586C72.003 9.04006 71.8046 9.88476 71.8046 10.8088Z" fill="white"/>
<path d="M89.7941 20.5416C89.1149 19.731 88.7759 18.8398 88.7759 17.8681V3.46611C88.7759 2.74952 88.9664 2.10324 89.3485 1.52838C89.7306 0.953529 90.2374 0.538546 90.8689 0.283433C91.2737 0.113358 91.6796 0.0283203 92.0855 0.0283203C93.0947 0.0283203 94.0516 0.556687 94.9564 1.61229L102.31 10.3417V3.46611C102.31 2.53183 102.645 1.73134 103.315 1.06124C103.975 0.410423 104.757 0.085012 105.663 0.085012C106.116 0.085012 106.548 0.167782 106.957 0.332188C107.367 0.497728 107.718 0.740368 108.01 1.06124C108.312 1.35377 108.552 1.71433 108.731 2.14405C108.91 2.57378 109 3.01371 109 3.46724V18.223C109 18.3647 108.981 18.5858 108.943 18.8874C108.849 19.4067 108.64 19.8704 108.314 20.2809C107.989 20.6913 107.595 21.0099 107.133 21.2356C106.67 21.4623 106.171 21.5746 105.634 21.5746C104.992 21.5746 104.413 21.4136 103.894 21.0938C103.517 20.8387 103.239 20.5938 103.06 20.358L95.4655 11.0344V18.1935C95.4655 19.1652 95.1401 19.9759 94.4893 20.6267C93.8577 21.2582 93.0935 21.5746 92.1978 21.5746C91.2272 21.5746 90.4267 21.231 89.7941 20.5416Z" fill="white"/>
</svg>
