<svg id="katman_1" data-name="katman 1" xmlns="http://www.w3.org/2000/svg" viewBox="0 0 2802.95 3041.9">
    <defs>
        <linearGradient id="Adsız_degrade_3" data-name="Adsız degrade 3" x1="1253.6" y1="620.99" x2="892.41" y2="1554.8" gradientUnits="userSpaceOnUse">
            <stop offset=".54" stop-color="#c0ccdc"/>
            <stop offset=".62" stop-color="#c0ccdc"/>
            <stop offset=".7" stop-color="#c0ccdc"/>
            <stop offset="1" stop-color="#18191e"/>
        </linearGradient>
        <linearGradient id="Adsız_degrade_2" data-name="Adsız degrade 2" x1="1897.82" y1="1806.25" x2="2610.47" y2="2579.27" gradientUnits="userSpaceOnUse">
            <stop offset="0" stop-color="#c0ccdc"/>
            <stop offset="0" stop-color="#c0ccdc"/>
            <stop offset="1" stop-color="#18191e"/>
        </linearGradient>
        <style>
            .cls-1,.cls-4,.cls-5,.cls-7{stroke-width:0}.cls-1{fill:#efb45c}.cls-12,.cls-13,.cls-17{stroke:#18191e}.cls-12,.cls-17{stroke-miterlimit:10}.cls-12,.cls-13,.cls-17{stroke-width:38.53px}.cls-12,.cls-5{fill:#c0ccdc}.cls-13{stroke-linejoin:round}.cls-13,.cls-7{fill:#fff}.cls-4{fill:#18191e}.cls-17{fill:#f37d6b}
        </style>
    </defs>
    <path class="cls-17" d="M2031.14 2684.44c76.69 64.47 138.45 77.94 182.36 77.05 47.13-.95 97.3-14.53 118.15 12.84 9.27 12.17 11.73 31.39 5.14 46.23-10.17 22.91-38.34 27.41-43.66 28.25-19.85 3.16-34.95-4.36-56.51-12.84-35.18-13.85-52.77-20.77-84.76-38.53-28.82-16-71.66-36.44-130.99-53.94M1450.67 2761.5c-82.06-15.33-149.88-13.11-197.77-7.71-19.12 2.16-221.74 26.36-228.59 92.46-1.67 16.14 8.55 32.53 20.55 41.1 38.56 27.52 103.85-19.94 192.63-53.94 48.94-18.74 118.91-38.72 210.61-43.66"/>
    <path class="cls-17" d="M1386.45 2794.89c36.3-3.74 61.31 3.44 77.05 10.27 39.99 17.36 44.72 43.15 92.46 61.64 17.82 6.9 41.43 15.65 64.21 5.14 1.72-.79 28.21-13.51 30.82-38.53 1.88-17.95-9.6-32.08-12.84-35.96-25.15-30.06-55.03-7.04-107.88-35.96-13.27-7.26-31.32-19.62-64.21-33.39-5.38-2.25-9.86-4-12.84-5.14"/>
    <path class="cls-12" d="M1970.78 253.39c12.88-18.73 60.02-82.95 128.42-89.9 14.92-1.52 40.36-4.1 59.07 12.84 13.03 11.8 19.31 29.91 17.98 46.23-2.4 29.44-29.04 46.91-43.66 56.51-50.71 33.27-110.25 22.69-130.99 17.98"/>
    <path class="cls-17" d="M1584.23 2417.32c-3.88 25.57-11.97 64.34-30.82 107.88-68.29 157.73-209.27 219.59-190.07 261.98 9.52 21.01 53.01 25.4 77.05 23.12 10.8-1.02 30.33-4.6 53.94-20.55 46.85-31.65 73.19-87.37 97.6-161.81 17.07-52.07 36.47-123.27 48.8-210.61M2015.73 2792.32c48.68 22.04 81.63 47.53 102.74 66.78 37.47 34.16 60.68 66.41 115.58 97.6 18.49 10.5 39.92 20.42 64.21 15.41 6.54-1.35 30.94-7.42 41.1-28.25 9.01-18.48 1.87-38.43 0-43.66-19.72-55.15-99.3-54.15-205.48-120.72a549.754 549.754 0 0 1-53.94-38.53"/>
    <path class="cls-17" d="M1923.26 2460.99c-6.8 104.45 18 179.45 35.96 220.89 20.25 46.74 42.34 95.71 89.9 107.88 32.64 8.35 76.93-.73 84.76-23.12 11.93-34.12-72.4-66.18-110.44-151.54-27.61-61.94-19.44-126.38-7.71-172.09"/>
    <path d="M1355.09 1884.37c-102.55 5.5-123.84-384.4-386.27-483.43-99.29-37.47-126.21 7.03-225.13-40.29-178.72-85.49-306.38-330.18-233.42-468.03 35.92-67.87 120.97-110.75 143.37-122.04 0 0 62.36-31.44 132.71-40.29 199.99-25.15 721.28 357.99 703.82 829.42-5.69 153.51-68.67 321.1-135.08 324.66Z" style="fill:url(#Adsız_degrade_3);stroke-width:38.53px;stroke-miterlimit:10;stroke:#18191e"/>
    <path class="cls-5" d="M680.9 1025.33c-46.93 84.39-66.51 156.21-75.83 203.8-33.46 170.82 7.41 324.98-54.5 360.2-4.13 2.35-20.47 11.65-37.92 7.11-18.78-4.88-34.3-24.61-47.4-68.72-44.72-150.62 21.81-314.25 37.92-362.57 30.81-48.19 61.61-96.37 92.42-144.56"/>
    <path class="cls-4" d="M680.9 1025.33c-38.12 82.52-63.56 169.52-70.4 258.36-8.04 78.87.26 158.89-7.52 238.3-3.64 26.07-8.94 52.71-29.27 73.42-17.84 16.21-40.35 24.88-64.34 20.01-36.92-9.18-51.35-48.17-61.17-79.27-30.13-102.08-13.14-211.59 21.13-310.33 7.97-22.42 16.49-44.67 25.37-66.1 8.12-11.78 16.57-23.35 24.84-35.03 24.18-33.73 50.96-71.24 76.06-104.1-13.43 25.35-27.39 50.37-41.34 75.39-10.84 18.39-35.07 62.88-41.53 72.35-36.29 114.57-64.1 239.09-28.59 356.78 6.94 19.19 14.19 46.08 33.88 52.8 20.04 2.8 35.87-11.7 41.63-31.14 11.89-39.51 10.39-86.86 12.58-129.31.92-136.59 30.61-278.89 108.69-392.13Z"/>
    <path class="cls-5" d="M1514.28 1460.2c6.06-69.31 13.35-258.61-101.9-450.26-35.64-59.26-149.91-249.28-383.9-310.44-265.95-69.51-498.49 76.61-602.33 184.83 0 0-113.61 118.46-114.93 245.27-.13 12.56-.46 43.87 18.96 56.87 12.2 8.18 27.94 6.27 42.66 2.37 52.48-13.89 91.18-52.85 146.93-113.75 22.34-24.41 48.8-53.84 78.2-87.68"/>
    <path class="cls-4" d="M1514.28 1460.2c4.5-151.72-32.2-304.79-112.44-433.42-109.87-186.89-297.06-323.77-519.82-319.75-163.82 2.89-323.84 78.53-439.98 192.56-48.41 51.59-103.8 134.03-113.07 213.49-3.5 35.54-7.02 78.33 44.56 62.02 12.76-3.29 25.14-8.28 36.98-14.83 23.72-13.1 45.18-31.7 65.85-51.12 41.62-39.2 80.74-81.52 121.58-121.72-17.82 22.53-35.87 44.91-53.97 67.27-46.87 55.02-91.42 120.23-163.08 145.28-16.24 5.27-33.76 9.27-51.51 2.2-35.23-15.82-35.46-59.43-33.64-92.11 4.21-60.92 29.35-117.67 60.78-168.75 15.68-25.33 33.9-50.36 53.72-72.24C556.46 716.65 776.41 626.2 987.77 665.06c195.67 33.55 353.01 172.15 444.18 344.12 75.16 136.24 104.47 297.16 82.31 451.02Z"/>
    <ellipse cx="506.19" cy="1447.06" rx="136.93" ry="98.77" transform="rotate(-79.42 506.135 1447.025)" style="stroke-width:47.63px;stroke-miterlimit:10;stroke:#18191e;fill:none"/>
    <path class="cls-1" d="M753.97 1994.76c13.51-86.76-45.54-110.19-59.88-209.07-12.88-88.8 27.96-116.65-2.95-193.23-2.67-6.62-15.25-39.09-48.63-74.18-20.8-21.87-62.88-66.1-133.56-79.72-72.09-13.89-128.69 12.78-155.55 25.44-16.12 7.59-44.57 22.22-72.13 51.62-56.48 60.25-28.45 100.97-72.52 179.12-49.08 87.03-112.6 87.56-131.33 173.34-1.61 7.39-6.97 34.1-3.26 59.28 13 88.23 138.09 162.43 305.42 189.91-.01.07-.02.13-.04.2 167.1 35.61 311.85 11.74 356.07-66.26 12.55-22.14 17.2-48.99 18.36-56.46Z"/>
    <path d="M437.97 1453.1c-7.11 18.12 76.4 41.02 112.99 118.39 18.44 38.99 4.58 48.71 15.92 146.19 9.84 84.6 15.57 133.87 47.6 179.13 40.85 57.74 105.86 99.24 124.56 85.42 10.48-7.74.65-28.64-20.48-136.24-8.28-42.15-13.53-69.12-16.87-97.73-11-94.22 13.34-101.78.72-148.49-29.2-108.1-174.34-145.71-180.56-147.23-32.36-7.93-78.74-12.53-83.87.54Z" style="fill:#d97e41;stroke-width:0"/>
    <path class="cls-4" d="M395.68 2143.73c-6.9-1.29-13.84-2.68-20.85-4.17l-3.97-.85c-4.37-.74-8.71-1.52-13.01-2.32-172.91-32.3-292.24-112.04-306.04-205.73-3.91-26.58.54-53.62 3.54-67.38 12.01-55.01 41.43-80.83 69.87-105.79 21.62-18.97 43.98-38.59 63.85-73.82 17.83-31.62 22.66-56.42 27.32-80.41 6.21-31.91 12.63-64.91 48.4-103.07 29.18-31.13 59.05-47.21 78.98-56.6 26.82-12.64 89.44-42.14 168.14-27.43.44.08.87.16 1.31.25 77.78 14.99 123.61 63.17 145.64 86.32 16.23 17.06 38.59 44.92 53.02 80.81l.2.49c19.58 48.5 13.65 81.59 7.92 113.59-4.31 24.05-8.77 48.92-3.56 84.85 5.8 40.03 19.57 66.4 32.88 91.9 17.52 33.55 35.63 68.25 26.96 123.88-2.17 13.92-7.78 40.75-21.03 64.12-46.76 82.5-186.65 113.68-359.57 81.38Zm10.33-44.99-.18.95c71.84 13.24 138.47 15.01 193.83 5.05 58.04-10.44 98.25-32.8 116.31-64.65 10.36-18.27 14.63-41.97 15.69-48.8 6.38-40.96-5.68-64.06-22.37-96.04-14.36-27.51-30.63-58.68-37.54-106.32-6.26-43.17-.92-72.99 3.8-99.29 5.44-30.35 9.37-52.29-5.34-88.72l-.22-.55c-11.76-29.26-30.32-52.32-43.83-66.52-20.24-21.27-57.9-60.86-121.47-73.11-.35-.07-.72-.14-1.07-.2-64.36-12.03-115.79 12.21-140.59 23.89-16.59 7.81-41.39 21.15-65.29 46.63-26.87 28.67-31.13 50.54-37.01 80.81-5.1 26.23-10.89 55.97-32.31 93.97-23.64 41.93-50.08 65.12-73.39 85.59-27.11 23.79-46.7 40.98-55.54 81.48-1.47 6.75-6.04 30.4-2.98 51.17 5.3 36.01 34.46 71.2 84.3 101.78 52.27 32.06 122.31 55.99 202.44 69.14l22.77 3.74Z"/>
    <path d="M90.64 1870.55c54.02-19.48 178.88-56.28 334.65-26.65 165.08 31.4 271.6 119.67 313.56 158.57" style="stroke-width:45.16px;stroke-miterlimit:10;stroke:#18191e;fill:#efb45c"/>
    <ellipse cx="406.2" cy="1982.2" rx="73.05" ry="229.77" transform="rotate(-79.42 406.139 1982.156)" style="fill:#bc643c;stroke-width:0"/>
    <ellipse class="cls-1" cx="412.79" cy="1946.95" rx="75.7" ry="82.34" transform="rotate(-79.42 412.722 1946.901)"/>
    <path d="M479.25 1904.25c-36.35-3.92-69.1 15.96-74.82 46.55-5.08 27.17 12.8 54.16 41.61 66.5 24.26-9.27 42.87-29.36 47.7-55.21 3.9-20.88-1.94-41.5-14.49-57.83Z" style="fill:#d97e41;opacity:.7;stroke-width:0"/>
    <path class="cls-4" d="M388.64 2076.2c-119.47-22.32-242.56-75.76-230.49-140.35 12.07-64.58 146.15-69.97 265.62-47.65s242.56 75.76 230.49 140.35c-12.07 64.58-146.15 69.97-265.62 47.65Zm26.83-143.61c-58.11-10.86-113.77-13.91-156.72-8.6-44.14 5.46-55.72 17.47-56.22 20.15-.5 2.68 5.96 18.06 45.15 39.09 38.14 20.46 91.14 37.71 149.25 48.57s113.77 13.91 156.72 8.6c44.14-5.46 55.72-17.47 56.22-20.15.5-2.68-5.96-18.06-45.15-39.09-38.14-20.46-91.14-37.71-149.25-48.57Z"/>
    <path class="cls-5" d="M699.85 992.16c-40.36 61.76-83.79 149.82-99.53 260.67 0 0-23.74 167.17 52.13 315.18 12.75 24.88 27.7 40.89 47.4 47.4 2.54.84 28.23 8.88 52.13-4.74 20.32-11.58 27.89-32.29 30.81-40.29 23.45-64.22-21.83-193.69-33.18-251.19-13.2-66.88-6.04-165.79 87.68-303.33"/>
    <path class="cls-4" d="M699.85 992.16c-46.51 82.18-79.77 183.31-86.9 270.42-2.78 40.95-.66 82.31 4.43 122.96 6.82 53.85 20.83 106.97 43.48 156.23 8.26 17.78 16.9 36.79 31.72 48.26 18.73 14.71 49.64 11.96 63.05-7.57 38.57-55.38-6.3-182.63-17.85-247.35-15.63-68.44-1.25-142.06 27.67-204.13 19.25-41.49 43.94-79.79 71.85-115.13-22.57 38.99-42.36 79.32-57.36 120.97-21.58 62.37-30.56 127.92-13.02 191.54 11.82 43.25 25.18 86.92 33.62 131.57 6.36 34.88 11.75 72.29 2.29 108.36-11.91 53.09-63.56 83.94-115.07 63.03-31.54-13.23-48.61-45.26-61.02-74.01-24.34-52.87-37.09-110.81-42.55-168.12-4.28-44.44-3.46-89.43 2.18-133.72 15.39-94.78 55.28-186.94 113.48-263.31Z"/>
    <path class="cls-5" d="M680.9 842.86c-141.04 66.5-226.3 152.78-272.52 208.54-101.85 122.86-157.22 270.1-128.74 335.33 3.32 7.6 12.62 28.92 33.95 39.09 31.66 15.1 69.37-4.13 82.17-10.65 109.58-55.87 102.79-264.65 244.86-427.75 39.58-45.43 80.06-75.11 106.64-92.42"/>
    <path class="cls-4" d="M680.9 842.86c-161.36 88.41-299.42 226.73-366.7 399.07-16.6 47.56-40.87 116.21-3.99 157.86 17.36 18.57 43.03 13.71 65.49 4.1 56.13-22.94 78.69-80.78 101.36-133.83 34.51-87.22 68.59-177.88 127.58-252.43 39.18-50.09 87.98-92.17 142.61-122.64-49.89 37.64-93.69 82.37-127.29 133.74-52.35 76.98-79.67 166.49-111.46 253.63-17.13 44.63-36.16 93.8-73.35 127.89-39.9 35.42-110.15 61.02-152.83 16.08-49.83-55.05-25.53-137.38-1.96-197.76 73.25-176.03 225.23-317.33 400.54-385.72Z"/>
    <path class="cls-5" d="M898.14 1161.61c-23.36 21.41-135.8 128.47-118.49 260.67 5.91 45.11 32.56 136.2 85.31 144.56 4.33.69 27.17 3.75 43.43-10.68 45.23-40.12-36.73-147.8 6.33-264.22 8.9-24.07 20.77-42.07 29.21-53.33"/>
    <path class="cls-4" d="M898.14 1161.61c-81.1 95.08-134.73 203.9-81.43 326.67 10.43 24.23 27.19 57.19 54.82 60.16 92.94 5.71-52.71-178.2 72.41-309.82-37.85 61.93-36.86 132.63-18.81 200.53 5.94 26.55 14.76 53.58 15.01 82.22 1.27 40.51-31.45 68.25-71.21 65.03-65-6.13-91.53-83.8-103.14-138.06-24.45-112.07 44.5-222.92 132.35-286.73Z"/>
    <path class="cls-5" d="M976.34 1270.61c-49.4 69.38-61.82 132.63-65.58 167.06-6.69 61.35-1.85 177.73 53.73 197.89 16 5.8 32.49 2.28 45.03-2.37 16.33-6.06 23.34-21.21 26.07-26.07 26.92-47.87-20.76-123.33-9.48-187.21 5.91-33.46 30.39-77.33 113.75-120.86"/>
    <path class="cls-4" d="M976.34 1270.62c-33.66 60.89-54.14 127.78-52.53 197.05 1.01 43.68 6.82 168.44 72.25 149.7 11.41-2.43 17.1-8.17 22.73-18.99 13.24-26.49 3.95-54.79-.58-83.86-12.45-57.98-16.33-114.11 30.18-159.24 26.52-26.22 58.52-43.48 91.46-56.21-28.91 20.18-57.18 41.64-77.14 68.57-49.44 60.42-7.28 126.48-.88 194.08 2.95 33.1-8.44 69.59-39.72 86.82-11.7 5.43-20.04 7.47-32.18 8.95-94.44 4.68-100.85-123.16-96.3-190.86 4.31-72.16 34.54-142.88 82.71-196Z"/>
    <path class="cls-12" d="M2081.89 313.29c7.11-1.54 71.72-14.64 103.61 21.55 5.31 6.02 19.53 22.16 15.64 41.26-3.15 15.48-16.31 23.66-17.93 24.63-18.16 10.9-39.77 2.61-51.6-1.94-33.71-12.94-51.45-41.42-58.39-54.42"/>
    <path class="cls-12" d="M1444.69 381.83c16.49-92 43.51-194.54 130.55-256.86 76.63-54.87 168.43-56.51 197.77-56.51 31.82 0 112.54-2.06 186.21 44.95 48.25 30.79 98.44 85.55 132.72 199.07 87.49 289.77-91.67 422.72-53.94 806.5 8.94 90.88 36.2 197.99 90.74 412.23 28.88 113.43 43.02 156.82 75.77 206.76 67.52 102.96 122.8 96.81 190.07 197.77 22.36 33.56 94.58 141.96 73.2 276.11-18.47 115.88-96.33 187.36-132.28 219.6-108.25 97.11-252.38 133.99-359.59 123.29-39.38-3.93-105.96-17.5-170.8-37.24a1080.16 1080.16 0 0 1-74.49-25.68c-6.58 6.48-48.48 46.44-111.73 42.38-75.35-4.83-113.72-67.83-116.87-73.2-20.19 1.2-48.65 1.56-82.19-2.57-15.37-1.89-229.13-30.37-345.46-201.62-32.99-48.56-68.52-123.45-74.49-244-22.38-452.46 417.6-582.32 439.65-1047.92 8.11-171.23-44.06-308.62 5.14-583.04Z"/>
    <path class="cls-5" d="M1545.7 2371.09a1939.34 1939.34 0 0 0 128.42 79.62c42.72 24.24 84.01 45.51 123.29 64.21"/>
    <path class="cls-4" d="M1545.7 2371.09a1928.135 1928.135 0 0 0 259.99 126.44l-16.56 34.79c-85.44-47.8-166.86-101.77-243.43-161.23 0 0 76.56 59.46 0 0Z"/>
    <path class="cls-13" d="M1722.2 521.3c63.63-6.79 127.27-13.58 190.9-20.36 12.31-99.99-15.59-182.47-63.63-203.63-32.24-14.2-63.63-7.64-63.63-7.64s-28.91 6.05-53.45 30.54c-37.42 37.35-41.65 117.01-10.18 201.08Z"/>
    <ellipse class="cls-4" cx="1756.96" cy="444.62" rx="46.39" ry="68.72"/>
    <ellipse class="cls-7" cx="1777.32" cy="405.17" rx="16.72" ry="21.64"/>
    <path class="cls-13" d="M1509.47 513.83c-40.65-10.11-64.74-35.2-73-44.65 3.83-97.73 42.95-167.05 90.42-174.78 22.53-3.67 41.2 7.47 46.21 10.71 44.39 28.71 55.77 110.2 25.45 202.01-11.36 4.71-46.11 17.4-89.09 6.71Z"/>
    <ellipse class="cls-4" cx="1514.11" cy="442.86" rx="43.16" ry="63.94"/>
    <ellipse class="cls-7" cx="1532.83" cy="407.56" rx="16.72" ry="21.64"/>
    <path class="cls-4" d="M1400.44 326.03c2.59-99.21 133.3-155.56 207.24-89.25-22.26-1.61-42.52-1.45-61.85.78-60.02 6.54-108.07 40.92-145.39 88.47Z"/>
    <path d="M2196.03 2456.14c47.44 43.24 364.46 329.57 502.35 327.06 11.18-.2 20.51-2.29 28.19-8.46 59.7-47.9-53.51-283.1-130.93-429.03" style="fill:#18191e;stroke-width:38.53px;stroke-miterlimit:10;stroke:#18191e"/>
    <path d="M1812.37 590.19c.53 7.47-44.48 20.93-145.08 33.09-67.5 8.16-123.75 11.35-162.9 12.73 5.41-20.04 14.14-48.49 28-81.45 23.95-56.96 35.92-85.44 61.09-94.18 33.19-11.52 75.98 10.78 96.72 38.18 17.6 23.24 8.36 36.26 25.45 56 33.73 38.94 96.08 26.57 96.72 35.63Z" style="fill:#ff9a8e;stroke-width:38.53px;stroke-miterlimit:10;stroke:#18191e"/>
    <path d="M1741.1 613.1c-60.45-.91-86.59-19.06-99.27-35.63-13.23-17.3-13.42-37.12-33.09-50.91-17.2-12.06-38.17-12.07-53.33-10.15" style="stroke-miterlimit:10;stroke:#18191e;fill:none;stroke-width:25.68px"/>
    <path class="cls-4" d="M1730.62 235.71c27.81-48.97 96.52-66.05 148.1-44.46 52.32 19.66 90.69 79.37 77.04 134.05-9.74-24.54-22.15-44.83-37.68-61.3-48.42-52.53-123.71-59.76-187.46-28.3Z"/>
    <path d="M1777.93 1484.98c-34.91 20.37-113.72 72.98-155.05 171.97-34.19 81.87-25.89 155.3-21.14 193.11 29.7 236.6 257.9 487.75 539.87 632.9 119.62 61.58 363.85 187.3 463.75 97.26 121.39-109.41-46.43-468.83-88.72-555.09-2.93-5.99-5.48-11.11-7.13-14.38-94.98-188.39-216.37-303.42-263.59-345.35-49.95-44.35-122.57-100.72-219.89-152.23" style="fill:url(#Adsız_degrade_2);stroke-width:0"/>
    <path class="cls-4" d="M1777.93 1484.98c-182.94 118.52-206.87 312.38-120.19 501.23 39.68 85.82 97.2 163.21 163.17 230.95 110.06 115.08 244.49 203.3 387.75 271.75 90.35 42.8 346.86 171.26 402.59 40.03 45.65-119-41.48-332.06-89.81-446.69-99.84-236.66-271.45-440.21-495.43-569.07 191.35 89.61 352.7 241.85 462.79 422.47 82.83 139.81 232.84 455.4 168.08 612.71-39.66 97.81-152.95 99.04-240.5 76.49-80.64-19.52-157.02-54.9-230.03-91.03-254.6-122.08-521.24-343.56-589.35-629.1-40.4-173.64 20.68-334.84 180.93-419.73Z"/>
    <path class="cls-4" d="M1730 1995.25c86.17 56.72 187.88 92.72 291.45 83.72 64.56-5.47 131.64-29.21 174.1-78.94 65.41-81.06 46.94-197.64 13.71-289.51 59.05 90.04 84.8 220.14 14.7 312.49-48.13 60.72-125.1 88.72-200.14 92.34-109.22 5.35-218.88-41.71-293.82-120.1ZM1918.89 2220.78c106.19 63.42 211.08 126.74 321.47 180.98 61.11 27.56 165.4 81.91 229.86 55.41 53.67-20.9 36.85-118 30.13-164.11-19.6-114.5-60.62-223.16-114.9-327.42 74.14 99.17 127.6 216.86 151.02 339.76 8.06 51.74 17.93 111.44-14.47 158.22-59.3 70.46-160.9 30.63-229.5 1.44-135.89-62.78-259.13-149.16-373.62-244.28Z"/>
    <path class="cls-7" d="M2682.88 2784.61c-45.11-49.8-90.21-99.61-135.32-149.42"/>
    <path class="cls-4" d="m2668.6 2797.54-121.04-162.34 149.59 136.48-28.55 25.86z"/>
    <path class="cls-7" d="M2732.75 2772.65c-45.11-49.8-90.21-99.61-135.32-149.42"/>
    <path class="cls-4" d="m2718.48 2785.58-121.05-162.35 149.6 136.49-28.55 25.86z"/>
    <path class="cls-7" d="m2738.39 2724.72-93.57-103.32"/>
    <path class="cls-4" d="m2724.11 2737.65-79.29-116.25 107.85 90.39-28.56 25.86z"/>
    <path class="cls-17" d="M2059.39 2812.87c-44.93-17.08-81.68-17.14-102.74-15.41-18.15 1.49-84.41 6.92-92.46 38.53-3.06 12 2.4 27.24 12.84 35.96 17.1 14.27 43.15 7.37 130.99-20.55 22.49-7.15 49.32-15.77 79.62-25.68"/>
    <path class="cls-4" d="M1601.36 2328.52c-246.33-59.79-407.7-313.28-364.94-561.94 5.8-34.2 14.61-67.86 28.33-99.36-22.54 140.82-3.88 286.12 66.64 409.97 61.47 109.72 157.43 193.87 269.96 251.33ZM1361.05 1241.96c-23.48 99.08-58.53 256.05 95.81 242.33 112.86-11.58 212.75-73.13 308.19-131.62-88.45 80.46-226.46 170.92-352.08 155.38-131.68-20.76-92.16-181.44-51.93-266.1ZM257.3 1441.85c-23.21 14.59-45.53 31.96-60.53 54.97-15.06 22.31-22.06 48.87-25.84 75.42-.56 3.96-1.09 7.99-1.63 12.23-2.72-3.33-4.85-7.04-6.72-10.85-15.97-32.94-8.87-74.84 15.62-101.87 19.3-21.93 49.94-35.52 79.09-29.89ZM759.48 1801.42c43.91 19.34 74.04 62.88 83.04 109.55 6.78 35.22 1.55 72.53-14.71 104.46-5.38 10.36-11.7 20.27-19.78 28.74 2.05-11.22 4.1-22.15 5.57-33.29 11.58-82.21-5.93-142.45-54.12-209.46Z"/>
</svg>
