<svg width="30" height="30" viewBox="0 0 30 30" fill="none" xmlns="http://www.w3.org/2000/svg">
<path d="M14.6748 14.9872C16.4069 14.9872 18.346 14.7955 19.5834 13.3817C20.6239 12.1929 20.9613 10.3548 20.6136 7.76755C20.1279 4.15644 17.9075 2 14.6748 2C11.4421 2 9.2217 4.15644 8.73596 7.77011C8.38827 10.3548 8.72574 12.1929 9.76625 13.3817C11.0036 14.7968 12.9427 14.9872 14.6748 14.9872ZM10.6355 8.02321C10.8425 6.48928 11.6415 3.9174 14.6748 3.9174C17.7081 3.9174 18.5071 6.49056 18.7141 8.02321C18.9787 10.0045 18.787 11.3812 18.1389 12.1201C17.5573 12.7848 16.5206 13.0698 14.6748 13.0698C12.829 13.0698 11.7923 12.7848 11.2107 12.1201C10.5626 11.3812 10.3709 10.0032 10.6355 8.02321ZM25.2589 24.472C24.1378 19.9648 19.7853 16.8151 14.6748 16.8151C9.56428 16.8151 5.21177 19.9648 4.09073 24.472C3.87087 25.3565 4.05494 26.2616 4.59565 26.9518C5.11718 27.6165 5.92505 28 6.81089 28H22.5387C23.4246 28 24.2324 27.6165 24.754 26.9518C25.2959 26.2616 25.4787 25.3578 25.2576 24.472H25.2589ZM23.2443 25.7707C23.0833 25.9752 22.8404 26.0852 22.5387 26.0852H6.81089C6.51049 26.0852 6.26635 25.9765 6.10528 25.7707C5.93016 25.5483 5.8752 25.2441 5.95189 24.9347C6.85946 21.2852 10.4476 18.7351 14.6748 18.7351C18.902 18.7351 22.4901 21.284 23.3977 24.9347C23.4744 25.2441 23.4194 25.5483 23.2443 25.7707Z" fill="white"/>
</svg>
