<svg width="243" height="60" viewBox="0 0 243 60" fill="none" xmlns="http://www.w3.org/2000/svg">
<path d="M231.402 59.7416H11.5982C5.19192 59.7416 0 54.5497 0 48.1434V11.5982C0 5.19192 5.19192 0 11.5982 0H231.402C237.808 0 243 5.19192 243 11.5982V48.1434C243 54.5497 237.806 59.7416 231.402 59.7416Z" fill="white"/>
<path d="M10.7444 49.9855C9.41794 48.5413 8.7547 46.8655 8.7547 44.9524V15.6953C8.7547 13.3936 9.39925 11.5515 10.6865 10.1652C11.9737 8.78086 13.6309 8.08773 15.6598 8.08773H28.5341C31.7531 8.08773 34.619 8.77525 37.1356 10.1503C39.6521 11.5253 41.6026 13.3973 42.987 15.7682C44.3714 18.139 45.0645 20.777 45.0645 23.6822C44.9673 27.8372 43.6315 31.2804 41.0552 34.01C38.4807 36.7414 35.0076 38.3686 30.6396 38.8955C29.7428 39.0132 28.8647 39.0711 28.0072 39.0711H22.5948V45.0682C22.5948 47.1364 21.9017 48.8328 20.5173 50.1593C19.2095 51.467 17.6103 52.1191 15.7196 52.1191C13.7673 52.1209 12.1082 51.4091 10.7444 49.9855ZM22.593 26.9591H28.123C29.0404 26.9591 29.8194 26.6378 30.464 25.9932C31.1459 25.3113 31.4878 24.5397 31.4878 23.6822C31.4878 22.8041 31.1664 22.0437 30.5219 21.3991C29.8194 20.7565 29.0198 20.4332 28.123 20.4332H22.593V26.9591Z" fill="#18191E"/>
<path d="M49.042 50.1611C47.6763 48.7954 46.9944 47.1177 46.9944 45.128V14.6117C46.9944 12.6613 47.6726 11.0172 49.0271 9.68136C50.3835 8.34555 52.0257 7.67671 53.9574 7.67671C55.1868 7.67671 56.332 7.98311 57.3951 8.59777C58.4581 9.21243 59.297 10.0569 59.9116 11.1293C60.5263 12.2017 60.8327 13.3824 60.8327 14.6696V45.2457C60.8327 46.163 60.6608 47.0561 60.3208 47.9229C59.9789 48.7917 59.4763 49.5577 58.8131 50.219C57.4474 51.5268 55.8295 52.1789 53.9556 52.1789C51.9677 52.1807 50.3293 51.5063 49.042 50.1611Z" fill="#18191E"/>
<path d="M90.6185 39.7156C92.6866 39.3252 94.1495 38.5349 95.007 37.3467H91.4087C89.6918 37.3467 88.2439 36.7432 87.0632 35.5326C85.8824 34.3238 85.2939 32.8703 85.2939 31.1739C85.3331 30.0436 85.6152 29.0235 86.1421 28.1156C86.669 27.2095 87.3957 26.4827 88.3224 25.9353C89.249 25.3898 90.2579 25.1151 91.3508 25.1151H102.966C107.237 25.1151 109.374 27.4654 109.374 32.166C109.374 33.5317 109.238 34.9366 108.965 36.3789C108.692 38.193 108.018 40.065 106.945 41.9968C105.755 44.1229 104.238 45.9519 102.396 47.482C100.552 49.014 98.4353 50.1798 96.0477 50.9776C93.6581 51.7772 91.0295 52.177 88.1617 52.177C86.5232 52.177 84.7091 52.0201 82.7194 51.708C79.988 51.2391 77.5163 50.4264 75.3024 49.2644C73.0885 48.1042 71.153 46.6077 69.494 44.773C67.8368 42.9403 66.5103 40.8515 65.5146 38.5125C64.3637 35.7437 63.7883 32.9338 63.7883 30.0866C63.7883 26.3407 64.7392 22.7966 66.6411 19.4505C68.543 16.1063 71.2296 13.3413 74.7008 11.1554C78.4841 8.7958 82.796 7.61506 87.633 7.61506C88.257 7.61506 89.1537 7.65429 90.3251 7.73276C92.412 7.90838 94.4503 8.30819 96.44 8.93219C98.3512 9.55619 100.145 10.3764 101.824 11.3908C105.238 13.6346 106.945 16.0335 106.945 18.5893C106.945 20.11 106.243 21.4851 104.838 22.7144C103.844 23.5925 102.643 24.0315 101.24 24.0315C100.205 24.0315 99.1041 23.7887 97.9327 23.2992H97.8748L95.3583 21.9858C94.8127 21.6738 94.3924 21.4589 94.1009 21.3431C91.6628 20.2128 89.391 19.6467 87.2836 19.6467C85.5872 19.6467 84.0646 19.983 82.7194 20.6556C81.3743 21.3281 80.2514 22.3183 79.3547 23.6242C78.4579 24.932 77.8619 26.4435 77.5705 28.1585C77.4528 28.7041 77.3949 29.2403 77.3949 29.7671C77.3949 30.4509 77.4528 31.1123 77.5705 31.7568C77.9217 33.4924 78.5457 34.9796 79.4425 36.2182C80.3393 37.4569 81.4752 38.4116 82.8502 39.086C84.2253 39.7586 85.7797 40.0949 87.5171 40.0949C88.5708 40.0968 89.604 39.9697 90.6185 39.7156Z" fill="#18191E"/>
<path d="M112.855 47.1476C112.485 46.2901 112.298 45.412 112.298 44.5152V15.1105C112.298 13.8046 112.601 12.6145 113.204 11.5403C113.807 10.4679 114.637 9.62345 115.691 9.00879C116.744 8.39413 117.933 8.08773 119.261 8.08773H135.733C136.727 8.08773 137.678 8.35676 138.586 8.89295C139.492 9.42915 140.215 10.1559 140.752 11.0732C141.288 11.9905 141.557 13.0144 141.557 14.1447C141.557 15.2563 141.288 16.2801 140.752 17.2161C140.215 18.1521 139.494 18.8938 138.586 19.4393C137.678 19.9849 136.69 20.2576 135.616 20.2576H126.136V23.9157H133.947C134.786 23.9157 135.616 24.0876 136.434 24.4276C137.252 24.7695 137.955 25.2328 138.541 25.8176C139.126 26.3258 139.575 26.9348 139.887 27.6466C140.199 28.3584 140.356 29.0945 140.356 29.8549C140.356 31.4542 139.731 32.8498 138.483 34.038C137.138 35.1888 135.646 35.7643 134.007 35.7643H126.136V39.5382H135.147C136.94 39.5382 138.491 40.1622 139.799 41.4102C140.423 41.937 140.892 42.576 141.204 43.327C141.516 44.078 141.673 44.8534 141.673 45.653C141.673 47.312 141.067 48.7151 139.859 49.8659C138.513 51.056 137 51.6501 135.324 51.6501H119.203C117.916 51.6501 116.692 51.2447 115.532 50.4358C114.37 49.6305 113.479 48.532 112.855 47.1476Z" fill="#18191E"/>
<path d="M147.584 42.32C146.706 41.072 145.97 39.7511 145.376 38.3555C144.78 36.9618 144.331 35.5569 144.03 34.1426C143.728 32.7283 143.576 31.2991 143.576 29.8568C143.576 28.4519 143.728 27.0376 144.03 25.614C144.333 24.1903 144.785 22.7704 145.391 21.3562C145.994 19.9419 146.726 18.621 147.586 17.3917C148.991 15.3441 150.687 13.5786 152.677 12.0952C154.666 10.6136 156.847 9.47585 159.216 8.68745C161.587 7.89717 164.019 7.50296 166.515 7.50296C168.387 7.50296 170.235 7.72716 172.06 8.17554C173.883 8.62393 175.63 9.28342 177.297 10.1503C178.965 11.019 180.486 12.0578 181.861 13.2666C183.236 14.4753 184.441 15.8523 185.474 17.3917C188.146 21.2534 189.484 25.4084 189.484 29.8549C189.484 32.0595 189.142 34.2192 188.46 36.3359C187.776 38.4527 186.782 40.4461 185.476 42.32C184.441 43.8221 183.214 45.2027 181.79 46.4601C180.366 47.7174 178.868 48.7562 177.299 49.5764C175.727 50.3965 174.007 51.0448 172.135 51.5212C170.263 51.9995 168.389 52.2386 166.517 52.2386C164.019 52.2386 161.587 51.8482 159.218 51.0691C156.849 50.29 154.663 49.1485 152.664 47.6464C150.661 46.1425 148.968 44.3676 147.584 42.32ZM157.297 29.8568C157.297 31.7886 157.712 33.5429 158.541 35.1234C159.371 36.704 160.482 37.9277 161.876 38.7946C163.27 39.6633 164.796 40.0968 166.455 40.0968C167.04 40.0968 167.645 40.0389 168.269 39.9212C169.381 39.6876 170.386 39.2766 171.283 38.6918C172.18 38.1071 172.975 37.3654 173.667 36.4686C174.358 35.5718 174.89 34.5723 175.26 33.47C175.63 32.3677 175.817 31.1833 175.817 29.9147C175.817 29.3113 175.759 28.6667 175.642 27.9829C175.348 26.2865 174.778 24.8237 173.93 23.5944C173.082 22.365 172.013 21.3991 170.726 20.6985C169.439 19.9961 168.034 19.6448 166.513 19.6448C164.817 19.6448 163.266 20.0783 161.861 20.947C160.456 21.8158 159.345 23.0395 158.526 24.6182C157.706 26.1987 157.297 27.9456 157.297 29.8568Z" fill="#18191E"/>
<path d="M194.513 49.9855C193.108 48.3078 192.405 46.4657 192.405 44.4554V14.6715C192.405 13.19 192.8 11.8523 193.59 10.6622C194.38 9.47212 195.428 8.61458 196.736 8.08773C197.575 7.7365 198.414 7.56088 199.253 7.56088C201.339 7.56088 203.32 8.65382 205.192 10.8378L220.405 28.8909V14.6715C220.405 12.7397 221.096 11.0826 222.483 9.69818C223.848 8.35302 225.466 7.67858 227.34 7.67858C228.276 7.67858 229.169 7.85046 230.017 8.19048C230.866 8.53238 231.592 9.03494 232.198 9.69818C232.822 10.3035 233.319 11.0489 233.69 11.9364C234.06 12.8238 234.247 13.7355 234.247 14.6715V45.1878C234.247 45.4811 234.208 45.9388 234.129 46.5628C233.935 47.6352 233.5 48.5955 232.827 49.4456C232.155 50.2938 231.34 50.9514 230.384 51.4203C229.427 51.8893 228.394 52.1228 227.282 52.1228C225.956 52.1228 224.756 51.7903 223.684 51.1289C222.903 50.602 222.328 50.0957 221.958 49.6081L206.246 30.3276V45.1317C206.246 47.1401 205.573 48.8178 204.226 50.1649C202.918 51.4726 201.339 52.1247 199.486 52.1247C197.478 52.1209 195.821 51.4091 194.513 49.9855Z" fill="#18191E"/>
</svg>
