<?xml version="1.0" encoding="UTF-8"?>
<svg id="katman_1" data-name="katman 1" xmlns="http://www.w3.org/2000/svg" viewBox="0 0 1075.36 264.38">
  <defs>
    <style>
      .cls-1 {
        fill: #18191e;
      }

      .cls-1, .cls-2 {
        stroke-width: 0px;
      }

      .cls-2 {
        fill: #fff;
      }
    </style>
  </defs>
  <rect class="cls-1" x="19.45" y="4.78" width="1036" height="254.78" rx="62.08" ry="62.08"/>
  <g>
    <path class="cls-2" d="M65.25,217.96c-5.66-6.16-8.48-13.31-8.48-21.46v-124.78c0-9.81,2.74-17.68,8.23-23.58,5.49-5.91,12.56-8.86,21.21-8.86h54.88c13.72,0,25.95,2.93,36.67,8.8s19.04,13.85,24.95,23.96c5.9,10.11,8.86,21.36,8.86,33.75-.42,17.72-6.11,32.4-17.09,44.05-10.98,11.65-25.78,18.59-44.41,20.84-3.83.5-7.57.75-11.23.75h-23.08v25.58c0,8.82-2.95,16.06-8.86,21.71-5.57,5.57-12.39,8.36-20.46,8.36s-15.39-3.04-21.21-9.11ZM115.77,119.76h23.58c3.91,0,7.23-1.37,9.98-4.12,2.91-2.91,4.37-6.2,4.37-9.86s-1.37-6.99-4.12-9.73c-2.99-2.74-6.4-4.12-10.23-4.12h-23.58v27.83Z"/>
    <path class="cls-2" d="M228.53,218.71c-5.82-5.82-8.73-12.98-8.73-21.46V67.1c0-8.32,2.89-15.33,8.67-21.03,5.78-5.7,12.79-8.55,21.02-8.55,5.24,0,10.12,1.31,14.66,3.93,4.53,2.62,8.11,6.22,10.73,10.79,2.62,4.58,3.93,9.61,3.93,15.1v130.39c0,3.91-.73,7.72-2.18,11.42-1.46,3.7-3.6,6.97-6.42,9.8-5.82,5.57-12.72,8.36-20.71,8.36-8.48,0-15.47-2.87-20.96-8.61Z"/>
    <path class="cls-2" d="M405.79,174.16c8.81-1.66,15.05-5.03,18.71-10.11h-15.34c-7.32,0-13.49-2.58-18.52-7.74-5.03-5.16-7.55-11.36-7.55-18.59.17-4.82,1.37-9.17,3.62-13.04,2.25-3.87,5.34-6.97,9.29-9.3,3.95-2.33,8.25-3.49,12.91-3.49h49.52c18.21,0,27.32,10.03,27.32,30.07,0,5.82-.58,11.81-1.75,17.97-1.17,7.74-4.03,15.72-8.61,23.96-5.07,9.07-11.54,16.87-19.4,23.4-7.86,6.53-16.88,11.5-27.07,14.91-10.19,3.41-21.39,5.12-33.62,5.12-6.99,0-14.72-.67-23.2-2-11.64-2-22.18-5.47-31.62-10.42-9.44-4.95-17.69-11.33-24.76-19.15-7.07-7.82-12.72-16.72-16.96-26.7-4.91-11.81-7.36-23.79-7.36-35.94,0-15.97,4.05-31.09,12.16-45.36,8.11-14.27,19.56-26.06,34.37-35.37,16.13-10.06,34.51-15.1,55.13-15.1,2.66,0,6.49.17,11.48.5,8.9.75,17.59,2.45,26.07,5.12,8.15,2.66,15.8,6.16,22.95,10.48,14.55,9.57,21.83,19.8,21.83,30.7,0,6.49-2.99,12.35-8.98,17.59-4.24,3.74-9.36,5.62-15.34,5.62-4.41,0-9.11-1.04-14.1-3.12h-.25l-10.73-5.62c-2.33-1.33-4.12-2.25-5.36-2.74-10.4-4.82-20.08-7.24-29.06-7.24-7.23,0-13.72,1.44-19.46,4.31-5.74,2.87-10.52,7.09-14.34,12.66-3.83,5.57-6.36,12.02-7.61,19.34-.5,2.33-.75,4.62-.75,6.86,0,2.91.25,5.74.75,8.48,1.5,7.4,4.16,13.75,7.98,19.03,3.82,5.28,8.67,9.36,14.53,12.23,5.86,2.87,12.49,4.31,19.9,4.31,4.49,0,8.9-.54,13.22-1.62Z"/>
    <path class="cls-2" d="M500.59,205.85c-1.58-3.66-2.37-7.4-2.37-11.23v-125.4c0-5.57,1.29-10.65,3.87-15.22,2.58-4.57,6.11-8.17,10.6-10.79,4.49-2.62,9.56-3.93,15.22-3.93h70.23c4.24,0,8.29,1.14,12.16,3.43,3.87,2.29,6.94,5.39,9.23,9.3,2.29,3.91,3.43,8.28,3.43,13.1s-1.14,9.11-3.43,13.1c-2.29,3.99-5.36,7.16-9.23,9.48-3.87,2.33-8.09,3.49-12.66,3.49h-40.42v15.6h33.3c3.57,0,7.11.73,10.6,2.18,3.49,1.46,6.49,3.43,8.98,5.93,2.5,2.16,4.41,4.76,5.74,7.8,1.33,3.04,2,6.18,2,9.42,0,6.82-2.66,12.77-7.98,17.84-5.74,4.91-12.1,7.36-19.08,7.36h-33.55v16.1h38.42c7.65,0,14.26,2.66,19.83,7.99,2.66,2.25,4.66,4.97,5.99,8.17,1.33,3.2,2,6.51,2,9.92,0,7.07-2.58,13.06-7.73,17.97-5.74,5.07-12.18,7.61-19.33,7.61h-68.73c-5.49,0-10.71-1.73-15.65-5.18-4.95-3.45-8.75-8.13-11.41-14.04Z"/>
    <path class="cls-2" d="M648.65,185.27c-3.74-5.32-6.88-10.96-9.42-16.91-2.54-5.95-4.45-11.94-5.74-17.97-1.29-6.03-1.93-12.12-1.93-18.28s.64-12.02,1.93-18.09c1.29-6.07,3.22-12.12,5.8-18.15,2.58-6.03,5.7-11.67,9.36-16.91,5.99-8.73,13.22-16.26,21.7-22.58,8.48-6.32,17.78-11.17,27.88-14.54,10.1-3.37,20.48-5.05,31.12-5.05,7.98,0,15.86.96,23.64,2.87,7.77,1.91,15.22,4.72,22.33,8.42,7.11,3.7,13.6,8.13,19.46,13.29,5.86,5.16,11,11.02,15.41,17.59,11.39,16.47,17.09,34.19,17.09,53.16,0,9.4-1.46,18.61-4.37,27.64-2.91,9.03-7.15,17.53-12.72,25.52-4.41,6.41-9.65,12.29-15.72,17.66-6.07,5.37-12.45,9.8-19.15,13.29-6.69,3.49-14.03,6.26-22.02,8.3-7.98,2.04-15.97,3.06-23.95,3.06-10.65,0-21.02-1.66-31.12-4.99-10.1-3.33-19.42-8.19-27.94-14.6-8.53-6.4-15.74-13.98-21.64-22.71ZM690.07,132.11c0,8.24,1.77,15.72,5.3,22.46,3.53,6.74,8.27,11.96,14.22,15.66,5.94,3.7,12.45,5.55,19.52,5.55,2.5,0,5.07-.25,7.73-.75,4.74-1,9.02-2.75,12.85-5.24,3.82-2.5,7.21-5.66,10.17-9.48,2.95-3.83,5.22-8.09,6.8-12.79,1.58-4.7,2.37-9.75,2.37-15.16,0-2.58-.25-5.32-.75-8.24-1.25-7.24-3.68-13.48-7.3-18.72-3.62-5.24-8.17-9.36-13.66-12.35-5.49-2.99-11.48-4.49-17.96-4.49-7.24,0-13.85,1.85-19.83,5.55-5.99,3.7-10.73,8.92-14.22,15.66-3.49,6.74-5.24,14.18-5.24,22.33Z"/>
    <path class="cls-2" d="M848.73,217.96c-5.99-7.15-8.98-15.01-8.98-23.58v-127.02c0-6.32,1.68-12.02,5.05-17.09,3.37-5.07,7.84-8.73,13.41-10.98,3.57-1.5,7.15-2.25,10.73-2.25,8.9,0,17.34,4.66,25.32,13.98l64.86,76.99v-60.64c0-8.24,2.95-15.31,8.86-21.21,5.82-5.74,12.72-8.61,20.71-8.61,3.99,0,7.8.73,11.41,2.18,3.62,1.46,6.71,3.6,9.29,6.43,2.66,2.58,4.78,5.76,6.36,9.55,1.58,3.79,2.37,7.67,2.37,11.67v130.14c0,1.25-.17,3.2-.5,5.86-.83,4.58-2.68,8.67-5.55,12.29-2.87,3.62-6.34,6.43-10.42,8.42-4.08,2-8.48,2.99-13.22,2.99-5.66,0-10.77-1.42-15.34-4.24-3.33-2.25-5.78-4.41-7.36-6.49l-66.98-82.23v63.14c0,8.57-2.87,15.72-8.61,21.46-5.57,5.57-12.31,8.36-20.21,8.36-8.57,0-15.63-3.04-21.21-9.11Z"/>
  </g>
</svg>