<svg width="13" height="16" viewBox="0 0 13 16" fill="none" xmlns="http://www.w3.org/2000/svg">
<path d="M4.84556 4.55026C4.92302 4.55026 4.99993 4.53083 5.07143 4.49255L8.58938 2.58864C8.7627 2.49493 8.8694 2.30294 8.8629 2.09552C8.8564 1.8881 8.73833 1.70411 8.55959 1.6224L5.10013 0.0430473C4.94739 -0.0266637 4.77136 -0.0112358 4.63161 0.0859024C4.49133 0.181898 4.40629 0.346461 4.40304 0.524167L4.38408 1.65897C1.69159 2.61892 -0.0941929 5.2988 0.00384387 8.31637C0.08184 10.7128 1.38069 12.9156 3.39451 14.0641C3.4698 14.1069 3.5505 14.1269 3.63012 14.1269C3.80886 14.1269 3.98165 14.0247 4.07156 13.8452C4.20155 13.5853 4.11001 13.2624 3.86628 13.1236C2.16607 12.1533 1.06925 10.2974 1.00317 8.27923C0.924631 5.86563 2.28144 3.70802 4.36513 2.80292L4.34509 4.00686C4.34238 4.19371 4.43121 4.36913 4.58016 4.46855C4.66086 4.52341 4.75294 4.55026 4.84556 4.55026ZM7.18274 2.15438L5.36066 3.14061L5.39099 1.33613L7.18274 2.15438ZM12.9962 7.8541C12.9236 5.62907 11.8132 3.57888 10.0269 2.36922C9.79182 2.21094 9.48416 2.28465 9.3363 2.53379C9.18897 2.78235 9.25776 3.11204 9.49066 3.26975C10.9991 4.29084 11.9367 6.01819 11.9974 7.89067C12.0705 10.1294 10.9 12.1682 9.03352 13.1739L9.00427 11.9705C8.99885 11.7836 8.90299 11.6134 8.75078 11.5208C8.59858 11.4288 8.41172 11.4276 8.25952 11.5196L4.82173 13.5778C4.6522 13.6795 4.55362 13.8761 4.5677 14.0829C4.58232 14.2892 4.70744 14.4681 4.88943 14.5418L8.41118 15.9657C8.46913 15.9886 8.52871 16 8.58829 16C8.69012 16 8.79195 15.9663 8.87753 15.9017C9.01348 15.7989 9.09202 15.6303 9.08823 15.4532L9.06114 14.3344C11.5186 13.2356 13.0882 10.6791 12.9962 7.8541ZM6.24462 13.9487L8.02553 12.8824L8.0694 14.6863L6.24462 13.9487Z" fill="white"/>
</svg>
