<svg width="30" height="30" viewBox="0 0 30 30" fill="none" xmlns="http://www.w3.org/2000/svg">
<path fill-rule="evenodd" clip-rule="evenodd" d="M15.9764 3.60393L19.1466 9.97442C19.302 10.2946 19.6079 10.5184 19.9639 10.5724L27.0596 11.5975C27.3475 11.6368 27.6076 11.7878 27.782 12.017C27.9565 12.2462 28.0307 12.5345 27.9884 12.8179C27.9527 13.0509 27.8394 13.2656 27.6664 13.4282L22.5273 18.4074C22.2675 18.6528 22.1511 19.0108 22.2177 19.3593L23.456 26.3766C23.5456 26.9548 23.1492 27.4974 22.5644 27.597C22.3233 27.6342 22.0763 27.5958 21.8586 27.4872L15.5306 24.1799C15.2145 24.0083 14.8313 24.0083 14.5152 24.1799L8.15008 27.5116C7.61606 27.7816 6.96095 27.5809 6.67646 27.06C6.56553 26.85 6.52644 26.6103 6.565 26.3766L7.80335 19.3593C7.86324 19.0113 7.74779 18.6563 7.49376 18.4074L2.31749 13.4282C1.89417 13.0052 1.89417 12.3256 2.31749 11.9026C2.49025 11.745 2.70503 11.6392 2.93666 11.5975L10.0324 10.5724C10.3867 10.5145 10.6909 10.2919 10.8497 9.97442L14.0198 3.60393C14.1451 3.34562 14.3709 3.14811 14.646 3.0562C14.9211 2.96429 15.2223 2.98577 15.4811 3.11576C15.6946 3.22249 15.8681 3.39348 15.9764 3.60393Z" stroke="white" stroke-width="2" stroke-linecap="round" stroke-linejoin="round"/>
</svg>
